# 3ds Max Wavefront OBJ Exporter v0.97b - (c)2007 guruware
# File Created: 19.01.2017 23:17:04

mtllib BreachShieldMesh.mtl

#
# object Plane001
#

v  -0.2607 16.5642 -2.5006
v  -0.2607 16.5642 1.7359
v  0.4767 16.5642 1.7359
v  0.4767 16.5642 -2.5006
v  0.7124 16.6494 1.7359
v  0.7124 16.6494 -2.5006
v  0.9235 16.8442 1.7359
v  0.9235 16.8442 -2.5006
v  1.0707 17.1011 1.7359
v  1.0707 17.1011 -2.5006
v  1.1093 17.3707 1.7359
v  1.1093 17.3707 -2.5006
v  1.1093 18.1376 -2.5006
v  1.1093 18.1376 1.7359
# 14 vertices

vn 0.0000 1.0000 -0.0000
vn -0.3400 0.9404 0.0000
vn -0.6781 0.7349 0.0000
vn -0.8677 0.4972 0.0000
vn -0.9899 0.1416 0.0000
vn -1.0000 0.0000 0.0000
# 6 vertex normals

vt 0.9910 0.0172 0.0000
vt 0.9910 0.9848 0.0000
vt 0.8226 0.9848 0.0000
vt 0.8226 0.0172 0.0000
vt 0.7654 0.9848 0.0000
vt 0.7654 0.0172 0.0000
vt 0.6998 0.9848 0.0000
vt 0.6998 0.0172 0.0000
vt 0.6321 0.9848 0.0000
vt 0.6321 0.0172 0.0000
vt 0.5699 0.9848 0.0000
vt 0.5699 0.0172 0.0000
vt 0.3947 0.0172 0.0000
vt 0.3947 0.9848 0.0000
# 14 texture coords

g Plane001
usemtl Standardmaterial
s 1
f 1/1/1 2/2/1 3/3/1 4/4/1 
s off
f 5/5/2 6/6/2 4/4/2 3/3/2 
f 7/7/3 8/8/3 6/6/3 5/5/3 
f 9/9/4 10/10/4 8/8/4 7/7/4 
f 11/11/5 12/12/5 10/10/5 9/9/5 
f 13/13/6 12/12/6 11/11/6 14/14/6 
# 6 polygons

