# 3ds Max Wavefront OBJ Exporter v0.97b - (c)2007 guruware
# File Created: 19.01.2017 22:29:27

mtllib BreechAssembly.mtl

#
# object breech
#

v  1.5162 16.0868 -9.4772
v  1.5162 16.0868 -5.3731
v  -2.1727 16.0868 -5.3731
v  -2.1727 16.0868 -9.4772
v  -1.2922 18.6295 -5.3731
v  0.6357 18.6295 -5.3731
v  1.5162 18.6295 -9.4772
v  -2.1727 18.6295 -9.4772
v  -2.1727 18.6295 -5.3731
v  -2.1727 16.0868 -2.0905
v  -1.2922 18.6295 -2.0905
v  -2.1727 18.6295 -2.0905
v  1.5162 18.6295 -5.3731
v  1.5162 18.6295 -2.0905
v  1.5162 16.0868 -2.0905
v  0.4146 17.0482 -2.0905
v  0.4146 17.0482 -5.3731
v  -1.0711 17.0482 -5.3731
v  -1.0711 17.0482 -2.0905
v  4.9583 16.5588 -9.0513
v  4.9583 18.4970 -9.0513
v  4.9583 18.4970 -5.6277
v  4.9583 16.5588 -5.6277
v  1.5162 16.5588 -9.0513
v  1.5162 16.5588 -5.6277
v  1.5162 18.4970 -9.0513
v  1.5162 18.4970 -5.6277
v  0.6357 18.6295 -2.0905
# 28 vertices

vn 0.0000 -1.0000 -0.0000
vn 0.0000 1.0000 -0.0000
vn -1.0000 0.0000 0.0000
vn 0.0000 0.0000 1.0000
vn 1.0000 0.0000 -0.0000
vn -0.0000 0.0000 -1.0000
vn -0.9904 0.1385 0.0000
vn 0.9904 0.1385 -0.0000
# 8 vertex normals

vt 0.8193 0.9887 0.0000
vt 0.6396 0.9887 0.0000
vt 0.6396 0.8272 0.0000
vt 0.8193 0.8272 0.0000
vt 0.2372 0.5609 0.0000
vt 0.2345 0.6644 0.0000
vt 0.0130 0.7060 0.0000
vt 0.0181 0.5080 0.0000
vt 0.6889 0.6996 0.0000
vt 0.6889 0.8190 0.0000
vt 0.4962 0.8190 0.0000
vt 0.4962 0.6996 0.0000
vt 0.4858 0.0395 0.0000
vt 0.1734 0.1477 0.0000
vt 0.1734 0.0395 0.0000
vt 0.6787 0.5023 0.0000
vt 0.6787 0.6916 0.0000
vt 0.4343 0.6916 0.0000
vt 0.4343 0.5023 0.0000
vt 0.8264 0.8754 0.0000
vt 0.9933 0.8754 0.0000
vt 0.9933 0.9904 0.0000
vt 0.8264 0.9904 0.0000
vt 0.4960 0.9887 0.0000
vt 0.4960 0.8272 0.0000
vt 0.9853 0.3141 0.0000
vt 0.6702 0.3141 0.0000
vt 0.6702 0.1715 0.0000
vt 0.9853 0.1715 0.0000
vt 0.8430 0.6996 0.0000
vt 0.8430 0.8190 0.0000
vt 0.1581 0.2660 0.0000
vt 0.1581 0.3475 0.0000
vt 0.0141 0.3475 0.0000
vt 0.0141 0.2660 0.0000
vt 0.9843 0.5023 0.0000
vt 0.9526 0.5374 0.0000
vt 0.6976 0.5374 0.0000
vt 0.9843 0.6916 0.0000
vt 0.9526 0.6818 0.0000
vt 0.6976 0.6818 0.0000
vt 0.0141 0.1212 0.0000
vt 0.1581 0.1212 0.0000
vt 0.3028 0.2660 0.0000
vt 0.3028 0.3475 0.0000
vt 0.1581 0.4922 0.0000
vt 0.0141 0.4922 0.0000
vt 0.0150 0.9905 0.0000
vt 0.0150 0.7254 0.0000
vt 0.4857 0.7254 0.0000
vt 0.4857 0.9905 0.0000
vt 0.4095 0.7162 0.0000
vt 0.2333 0.7117 0.0000
vt 0.4107 0.6689 0.0000
vt 0.2384 0.5137 0.0000
vt 0.4146 0.5182 0.0000
vt 0.4134 0.5654 0.0000
vt 0.4858 0.4926 0.0000
vt 0.1734 0.4926 0.0000
vt 0.1734 0.3845 0.0000
vt 0.9853 0.4673 0.0000
vt 0.6702 0.4673 0.0000
vt 0.5184 0.3353 0.0000
vt 0.5184 0.1502 0.0000
vt 0.6702 0.0182 0.0000
vt 0.9853 0.0182 0.0000
vt 0.3677 0.3573 0.0000
vt 0.3677 0.1748 0.0000
# 68 texture coords

g breech
usemtl Standardmaterial
s 2
f 1/1/1 2/2/1 3/3/1 4/4/1 
s 4
f 5/5/2 6/6/2 7/7/2 8/8/2 
s 8
f 3/9/3 9/10/3 8/11/3 4/12/3 
s 16
f 10/13/4 11/14/4 12/15/4 
s 32
f 2/16/5 13/17/5 14/18/5 15/19/5 
s 64
f 1/20/6 4/21/6 8/22/6 7/23/6 
s 2
f 15/24/1 10/25/1 3/3/1 2/2/1 
s 4
f 16/26/2 17/27/2 18/28/2 19/29/2 
s 8
f 10/30/3 12/31/3 9/10/3 3/9/3 
s 32
f 20/32/5 21/33/5 22/34/5 23/35/5 
s off
f 2/16/5 1/36/5 24/37/5 25/38/5 
f 1/36/5 7/39/5 26/40/5 24/37/5 
f 7/39/5 13/17/5 27/41/5 26/40/5 
f 13/17/5 2/16/5 25/38/5 27/41/5 
f 25/42/1 24/43/1 20/32/1 23/35/1 
f 24/44/6 26/45/6 21/33/6 20/32/6 
f 26/46/2 27/47/2 22/34/2 21/33/2 
f 27/48/4 25/49/4 23/50/4 22/51/4 
s 4
f 14/52/2 13/53/2 6/6/2 28/54/2 
f 9/55/2 12/56/2 11/57/2 5/5/2 
s 16
f 15/58/4 14/59/4 28/60/4 
s 4
f 8/8/2 9/55/2 5/5/2 
f 6/6/2 13/53/2 7/7/2 
s off
f 28/61/7 6/62/7 17/27/7 16/26/7 
f 6/63/4 5/64/4 18/28/4 17/27/4 
f 5/65/8 11/66/8 19/29/8 18/28/8 
f 16/67/4 19/68/4 10/13/4 15/58/4 
f 15/58/4 28/60/4 16/67/4 
f 19/68/4 11/14/4 10/13/4 
# 23 polygons - 6 triangles

