# 3ds Max Wavefront OBJ Exporter v0.97b - (c)2007 guruware
# File Created: 13.12.2016 07:10:19

mtllib BreechShieldBar2.mtl

#
# object breechguard
#

v  -7.9098 12.1962 -1.4500
v  -7.9098 12.1695 -1.5496
v  -11.9931 12.1695 -1.5496
v  -11.9931 12.1962 -1.4500
v  -7.9098 12.0966 -1.6225
v  -11.9931 12.0966 -1.6225
v  -7.9098 11.9971 -1.6492
v  -11.9931 11.9971 -1.6492
v  -7.9098 11.8975 -1.6225
v  -11.9931 11.8975 -1.6225
v  -7.9098 11.8246 -1.5496
v  -11.9931 11.8246 -1.5496
v  -7.9098 11.7979 -1.4500
v  -11.9931 11.7979 -1.4500
v  -7.9098 11.8246 -1.3505
v  -11.9931 11.8246 -1.3505
v  -7.9098 11.8975 -1.2776
v  -11.9931 11.8975 -1.2776
v  -7.9098 11.9971 -1.2509
v  -11.9931 11.9971 -1.2509
v  -7.9098 12.0966 -1.2776
v  -11.9931 12.0966 -1.2776
v  -7.9098 12.1695 -1.3505
v  -11.9931 12.1695 -1.3505
v  -7.9098 11.9971 -1.4500
# 25 vertices

vn 0.0000 1.0000 0.0000
vn 0.0000 0.8660 -0.5000
vn 0.0000 0.5000 -0.8660
vn 0.0000 0.0000 -1.0000
vn 0.0000 -0.0000 -1.0000
vn 0.0000 -0.5000 -0.8660
vn 0.0000 -0.8660 -0.5000
vn 0.0000 -1.0000 0.0000
vn 0.0000 -0.8660 0.5000
vn 0.0000 -0.5000 0.8660
vn 0.0000 0.0000 1.0000
vn 0.0000 0.5000 0.8660
vn 0.0000 0.8660 0.5000
vn 1.0000 0.0000 -0.0000
# 14 vertex normals

vt 0.9838 0.2327 0.0000
vt 0.9838 0.2570 0.0000
vt 0.0238 0.2570 0.0000
vt 0.0238 0.2327 0.0000
vt 0.9838 0.2812 0.0000
vt 0.0238 0.2812 0.0000
vt 0.9838 0.3054 0.0000
vt 0.0238 0.3054 0.0000
vt 0.9838 0.0146 0.0000
vt 0.9838 0.0388 0.0000
vt 0.0238 0.0388 0.0000
vt 0.0238 0.0146 0.0000
vt 0.9838 0.0630 0.0000
vt 0.0238 0.0630 0.0000
vt 0.9838 0.0873 0.0000
vt 0.0238 0.0873 0.0000
vt 0.9838 0.1115 0.0000
vt 0.0238 0.1115 0.0000
vt 0.9838 0.1358 0.0000
vt 0.0238 0.1358 0.0000
vt 0.9838 0.1600 0.0000
vt 0.0238 0.1600 0.0000
vt 0.9838 0.1842 0.0000
vt 0.0238 0.1842 0.0000
vt 0.9838 0.2085 0.0000
vt 0.0238 0.2085 0.0000
vt 0.0983 0.3567 0.0000
vt 0.1737 0.3365 0.0000
vt 0.1737 0.4875 0.0000
vt 0.2492 0.3567 0.0000
vt 0.3045 0.4120 0.0000
vt 0.3247 0.4875 -0.2500
vt 0.3045 0.5630 0.0000
vt 0.2492 0.6182 0.0000
vt 0.1737 0.6385 0.0000
vt 0.0983 0.6182 0.0000
vt 0.0430 0.5630 0.0000
vt 0.0228 0.4875 -0.2500
vt 0.0430 0.4120 0.0000
# 39 texture coords

g breechguard
usemtl Standardmaterial
s 8
f 1/1/1 2/2/2 3/3/2 4/4/1 
f 2/2/2 5/5/3 6/6/3 3/3/2 
f 5/5/3 7/7/4 8/8/5 6/6/3 
f 7/9/4 9/10/6 10/11/6 8/12/5 
f 9/10/6 11/13/7 12/14/7 10/11/6 
f 13/15/8 14/16/8 12/14/7 11/13/7 
f 13/15/8 15/17/9 16/18/9 14/16/8 
f 15/17/9 17/19/10 18/20/10 16/18/9 
f 17/19/10 19/21/11 20/22/11 18/20/10 
f 19/21/11 21/23/12 22/24/12 20/22/11 
f 21/23/12 23/25/13 24/26/13 22/24/12 
f 23/25/13 1/1/1 4/4/1 24/26/13 
s off
f 2/27/14 1/28/14 25/29/14 
f 1/28/14 23/30/14 25/29/14 
f 23/30/14 21/31/14 25/29/14 
f 21/31/14 19/32/14 25/29/14 
f 19/32/14 17/33/14 25/29/14 
f 17/33/14 15/34/14 25/29/14 
f 15/34/14 13/35/14 25/29/14 
f 13/35/14 11/36/14 25/29/14 
f 11/36/14 9/37/14 25/29/14 
f 9/37/14 7/38/14 25/29/14 
f 7/38/14 5/39/14 25/29/14 
f 5/39/14 2/27/14 25/29/14 
# 12 polygons - 12 triangles

