# 3ds Max Wavefront OBJ Exporter v0.97b - (c)2007 guruware
# File Created: 19.01.2017 23:21:55

mtllib button.mtl

#
# object EngineStartSwitch
#

v  -4.2542 9.9727 -17.4828
v  -4.2933 10.0671 -17.4828
v  -4.2933 10.0671 -17.3985
v  -4.2542 9.9727 -17.3985
v  -4.3877 10.1062 -17.4828
v  -4.3877 10.1062 -17.3985
v  -4.4822 10.0671 -17.4828
v  -4.4822 10.0671 -17.3985
v  -4.5213 9.9727 -17.4828
v  -4.5213 9.9727 -17.3985
v  -4.4822 9.8783 -17.4828
v  -4.4822 9.8783 -17.3985
v  -4.3877 9.8392 -17.4828
v  -4.3877 9.8392 -17.3985
v  -4.2933 9.8783 -17.4828
v  -4.2933 9.8783 -17.3985
v  -4.3237 10.0367 -17.3147
v  -4.3877 10.0632 -17.3147
v  -4.4517 10.0367 -17.3147
v  -4.3237 9.9087 -17.3147
v  -4.4783 9.9727 -17.3147
v  -4.4517 9.9087 -17.3147
v  -4.3877 9.8822 -17.3147
v  -4.2972 9.9727 -17.3147
v  -4.3237 10.0367 -17.3716
v  -4.2972 9.9727 -17.3716
v  -4.3877 10.0632 -17.3716
v  -4.4517 10.0367 -17.3716
v  -4.4783 9.9727 -17.3716
v  -4.4517 9.9087 -17.3716
v  -4.3877 9.8822 -17.3716
v  -4.3237 9.9087 -17.3716
# 32 vertices

vn 1.0000 -0.0000 -0.0000
vn 0.7071 0.7071 -0.0000
vn -0.0000 1.0000 -0.0000
vn -0.7071 0.7071 -0.0000
vn -1.0000 -0.0000 -0.0000
vn -0.7071 -0.7071 -0.0000
vn -0.0000 -1.0000 -0.0000
vn 0.7071 -0.7071 -0.0000
vn 0.0000 0.0000 -1.0000
vn 0.0000 0.0000 1.0000
vn 0.5179 0.2145 0.8281
vn 0.2145 0.5179 0.8281
vn -0.2145 0.5179 0.8281
vn -0.5179 0.2145 0.8281
vn -0.5179 -0.2145 0.8281
vn -0.2145 -0.5179 0.8281
vn 0.2145 -0.5179 0.8281
vn 0.5179 -0.2145 0.8281
vn 0.9239 0.3827 -0.0000
vn 0.3827 0.9239 -0.0000
vn -0.3827 0.9239 -0.0000
vn -0.9239 0.3827 -0.0000
vn -0.9239 -0.3827 -0.0000
vn -0.3827 -0.9239 -0.0000
vn 0.3827 -0.9239 -0.0000
vn 0.9239 -0.3827 -0.0000
# 26 vertex normals

vt 0.5231 0.2581 0.0000
vt 0.4539 0.3487 0.0000
vt 0.3792 0.2917 0.0000
vt 0.4483 0.2011 0.0000
vt 0.3847 0.4393 0.0000
vt 0.3100 0.3823 0.0000
vt 0.3156 0.5299 0.0000
vt 0.2408 0.4729 0.0000
vt 0.2464 0.6205 0.0000
vt 0.1717 0.5635 0.0000
vt 0.1773 0.7111 0.0000
vt 0.1026 0.6541 0.0000
vt 0.1082 0.8017 0.0000
vt 0.0334 0.7447 0.0000
vt 0.6614 0.0770 0.0000
vt 0.5922 0.1675 0.0000
vt 0.5175 0.1105 0.0000
vt 0.5867 0.0199 0.0000
vt 0.9762 0.4875 -0.1252
vt 0.9326 0.5928 0.1252
vt 0.8273 0.6364 0.1252
vt 0.8273 0.3386 0.1252
vt 0.7220 0.5928 0.1252
vt 0.6784 0.4875 -0.1252
vt 0.7220 0.3822 0.1252
vt 0.9326 0.3822 0.1252
vt 0.9089 0.2339 0.0000
vt 0.8372 0.2628 0.0000
vt 0.7661 0.2325 0.0000
vt 0.9102 0.0911 0.0000
vt 0.7372 0.1609 0.0000
vt 0.7675 0.0898 0.0000
vt 0.8391 0.0609 0.0000
vt 0.9391 0.1628 0.0000
vt 0.3478 0.2446 0.0000
vt 0.3947 0.1832 0.0000
vt 0.2786 0.3352 0.0000
vt 0.3255 0.2738 0.0000
vt 0.2094 0.4258 0.0000
vt 0.2563 0.3644 0.0000
vt 0.1403 0.5164 0.0000
vt 0.1872 0.4550 0.0000
vt 0.0711 0.6070 0.0000
vt 0.1180 0.5456 0.0000
vt 0.0020 0.6976 0.0000
vt 0.0489 0.6362 0.0000
vt 0.4861 0.0634 0.0000
vt 0.5330 0.0020 0.0000
vt 0.4169 0.1540 0.0000
vt 0.4638 0.0926 0.0000
vt 0.9975 0.1876 0.0000
vt 0.9673 0.2587 0.0000
vt 0.9326 0.2927 0.0000
vt 0.8610 0.3216 0.0000
vt 0.8124 0.3212 0.0000
vt 0.7413 0.2909 0.0000
vt 0.7073 0.2563 0.0000
vt 0.6784 0.1846 0.0000
vt 0.6788 0.1360 0.0000
vt 0.7091 0.0649 0.0000
vt 0.7437 0.0309 0.0000
vt 0.8154 0.0020 0.0000
vt 0.8640 0.0025 0.0000
vt 0.9351 0.0327 0.0000
vt 0.9691 0.0674 0.0000
vt 0.9980 0.1390 0.0000
# 66 texture coords

g EngineStartSwitch
usemtl Standardmaterial
s 8
f 1/1/1 2/2/2 3/3/2 4/4/1 
f 2/2/2 5/5/3 6/6/3 3/3/2 
f 5/5/3 7/7/4 8/8/4 6/6/3 
f 7/7/4 9/9/5 10/10/5 8/8/4 
f 9/9/5 11/11/6 12/12/6 10/10/5 
f 11/11/6 13/13/7 14/14/7 12/12/6 
f 13/15/7 15/16/8 16/17/8 14/18/7 
f 15/16/8 1/1/1 4/4/1 16/17/8 
s 1
f 13/19/9 11/20/9 9/21/9 1/22/9 
f 9/21/9 7/23/9 5/24/9 1/22/9 
f 5/24/9 2/25/9 1/22/9 
f 15/26/9 13/19/9 1/22/9 
f 17/27/10 18/28/10 19/29/10 20/30/10 
f 19/29/10 21/31/10 22/32/10 20/30/10 
f 22/32/10 23/33/10 20/30/10 
f 24/34/10 17/27/10 20/30/10 
s off
f 4/4/11 3/3/11 25/35/11 26/36/11 
f 3/3/12 6/6/12 27/37/12 25/38/12 
f 6/6/13 8/8/13 28/39/13 27/40/13 
f 8/8/14 10/10/14 29/41/14 28/42/14 
f 10/10/15 12/12/15 30/43/15 29/44/15 
f 12/12/16 14/14/16 31/45/16 30/46/16 
f 14/18/17 16/17/17 32/47/17 31/48/17 
f 16/17/18 4/4/18 26/49/18 32/50/18 
f 26/51/19 25/52/19 17/27/19 24/34/19 
f 25/53/20 27/54/20 18/28/20 17/27/20 
f 27/55/21 28/56/21 19/29/21 18/28/21 
f 28/57/22 29/58/22 21/31/22 19/29/22 
f 29/59/23 30/60/23 22/32/23 21/31/23 
f 30/61/24 31/62/24 23/33/24 22/32/24 
f 31/63/25 32/64/25 20/30/25 23/33/25 
f 32/65/26 26/66/26 24/34/26 20/30/26 
# 28 polygons - 4 triangles

