# 3ds Max Wavefront OBJ Exporter v0.97b - (c)2007 guruware
# File Created: 19.01.2017 23:19:41

mtllib controlbar.mtl

#
# object ControlBarLeft
#

v  -8.1316 4.0076 -15.4319
v  -8.1316 3.9750 -15.8035
v  -7.9276 3.9750 -15.8035
v  -7.9276 4.0076 -15.4319
v  -8.1317 7.9653 -15.7781
v  -7.9275 7.9653 -15.7781
v  -7.9275 7.9328 -16.1498
v  -8.1317 7.9328 -16.1498
v  -7.9276 6.8229 -15.6782
v  -8.1316 6.8229 -15.6782
v  -7.9276 6.7904 -16.0498
v  -8.1316 6.7904 -16.0498
v  -7.8547 6.9029 -15.6302
v  -8.2044 6.9029 -15.6302
v  -7.8547 6.8608 -16.1110
v  -8.2044 6.8608 -16.1110
v  -7.8547 7.8949 -15.7170
v  -8.2044 7.8949 -15.7170
v  -7.8547 7.8529 -16.1978
v  -8.2044 7.8529 -16.1978
# 20 vertices

vn 0.0000 -0.9962 0.0872
vn 0.0000 0.9962 -0.0872
vn 0.0000 0.0872 0.9962
vn 1.0000 0.0000 -0.0000
vn 0.0000 -0.0872 -0.9962
vn -1.0000 0.0000 -0.0000
vn 0.0000 -0.7884 0.6152
vn 0.5442 -0.8358 0.0731
vn 0.0000 -0.8832 -0.4690
vn -0.5442 -0.8358 0.0731
vn 0.0000 0.8829 0.4695
vn 0.5447 0.8354 -0.0731
vn 0.0000 0.7880 -0.6157
vn -0.5447 0.8354 -0.0731
# 14 vertex normals

vt 0.9136 0.0020 0.0000
vt 0.9136 0.1881 0.0000
vt 0.8370 0.1881 0.0000
vt 0.8370 0.0020 0.0000
vt 0.6983 0.3109 0.0000
vt 0.7724 0.2912 0.0000
vt 0.8204 0.4711 0.0000
vt 0.7463 0.4908 0.0000
vt 0.2307 0.0140 0.0000
vt 0.3071 0.0190 0.0000
vt 0.2642 0.6820 0.0000
vt 0.1877 0.6771 0.0000
vt 0.3238 0.0020 0.0000
vt 0.5099 0.0020 0.0000
vt 0.5099 0.6664 0.0000
vt 0.3238 0.6664 0.0000
vt 0.5865 0.0020 0.0000
vt 0.5865 0.6664 0.0000
vt 0.0450 0.0020 0.0000
vt 0.0020 0.6651 0.0000
vt 0.6212 0.0217 0.0000
vt 0.6952 0.0020 0.0000
vt 0.7300 0.0264 0.0000
vt 0.6032 0.0603 0.0000
vt 0.0293 0.6987 0.0000
vt 0.2155 0.6987 0.0000
vt 0.2428 0.7313 0.0000
vt 0.0020 0.7313 0.0000
vt 0.6262 0.5172 0.0000
vt 0.7021 0.5075 0.0000
vt 0.7334 0.5364 0.0000
vt 0.6032 0.5530 0.0000
vt 0.3511 0.6831 0.0000
vt 0.5373 0.6831 0.0000
vt 0.5646 0.7157 0.0000
vt 0.3238 0.7157 0.0000
vt 0.7904 0.2527 0.0000
vt 0.6635 0.2865 0.0000
vt 0.2428 0.9654 0.0000
vt 0.0020 0.9654 0.0000
vt 0.7631 0.7686 0.0000
vt 0.6329 0.7853 0.0000
vt 0.5646 0.9498 0.0000
vt 0.3238 0.9498 0.0000
vt 0.2155 0.9980 0.0000
vt 0.0293 0.9980 0.0000
vt 0.7402 0.8044 0.0000
vt 0.6641 0.8141 0.0000
vt 0.5373 0.9824 0.0000
vt 0.3511 0.9824 0.0000
# 50 texture coords

g ControlBarLeft
usemtl Standardmaterial
s 2
f 1/1/1 2/2/1 3/3/1 4/4/1 
s 4
f 5/5/2 6/6/2 7/7/2 8/8/2 
s 8
f 1/9/3 4/10/3 9/11/3 10/12/3 
s 16
f 4/13/4 3/14/4 11/15/4 9/16/4 
s 32
f 3/14/5 2/17/5 12/18/5 11/15/5 
s 64
f 2/19/6 1/9/6 10/12/6 12/20/6 
s off
f 10/21/7 9/22/7 13/23/7 14/24/7 
f 9/25/8 11/26/8 15/27/8 13/28/8 
f 11/29/9 12/30/9 16/31/9 15/32/9 
f 12/33/10 10/34/10 14/35/10 16/36/10 
f 14/24/3 13/23/3 17/37/3 18/38/3 
f 13/28/4 15/27/4 19/39/4 17/40/4 
f 15/32/5 16/31/5 20/41/5 19/42/5 
f 16/36/6 14/35/6 18/43/6 20/44/6 
f 18/38/11 17/37/11 6/6/11 5/5/11 
f 17/40/12 19/39/12 7/45/12 6/46/12 
f 19/42/13 20/41/13 8/47/13 7/48/13 
f 20/44/14 18/43/14 5/49/14 8/50/14 
# 18 polygons

