# 3ds Max Wavefront OBJ Exporter v0.97b - (c)2007 guruware
# File Created: 10.01.2017 08:16:03

mtllib DriverInteriorAssembly.mtl

#
# object Box009
#

v  -28.1640 3.8779 3.8582
v  -28.1640 3.8779 -5.5249
v  -19.4977 3.8779 -5.5249
v  -19.4977 3.8779 3.8582
v  -28.1640 9.2283 3.8582
v  -19.4977 9.2283 3.8582
v  -19.4977 9.2283 -5.5249
v  -28.1640 9.2283 -5.5249
# 8 vertices

vn 0.0000 -1.0000 -0.0000
vn 0.0000 1.0000 -0.0000
vn 0.0000 0.0000 1.0000
vn 1.0000 0.0000 -0.0000
vn 0.0000 0.0000 -1.0000
vn -1.0000 0.0000 -0.0000
# 6 vertex normals

vt 0.3851 0.4334 0.0000
vt 0.3851 0.8482 0.0000
vt 0.0020 0.8482 0.0000
vt 0.0020 0.4334 0.0000
vt 0.0020 0.0020 0.0000
vt 0.3851 0.0020 0.0000
vt 0.3851 0.4167 0.0000
vt 0.0020 0.4167 0.0000
vt 0.4017 0.5083 0.0000
vt 0.7848 0.5083 0.0000
vt 0.7848 0.7448 0.0000
vt 0.4017 0.7448 0.0000
vt 0.4017 0.0020 0.0000
vt 0.8165 0.0020 0.0000
vt 0.8165 0.2385 0.0000
vt 0.4017 0.2385 0.0000
vt 0.4017 0.7615 0.0000
vt 0.7848 0.7615 0.0000
vt 0.7848 0.9980 0.0000
vt 0.4017 0.9980 0.0000
vt 0.4017 0.2552 0.0000
vt 0.8165 0.2552 0.0000
vt 0.8165 0.4917 0.0000
vt 0.4017 0.4917 0.0000
# 24 texture coords

g Box009
usemtl Standardmaterial
s 2
f 1/1/1 2/2/1 3/3/1 4/4/1 
s 4
f 5/5/2 6/6/2 7/7/2 8/8/2 
s 8
f 1/9/3 4/10/3 6/11/3 5/12/3 
s 16
f 4/13/4 3/14/4 7/15/4 6/16/4 
s 32
f 3/17/5 2/18/5 8/19/5 7/20/5 
s 64
f 2/21/6 1/22/6 5/23/6 8/24/6 
# 6 polygons

#
# object Box010
#

v  -28.0914 6.1694 0.9758
v  -28.0914 6.1694 -2.5510
v  -27.3313 4.8529 -2.5510
v  -27.3313 4.8529 0.9758
v  -27.8309 6.3198 0.9758
v  -27.0708 5.0033 0.9758
v  -27.0708 5.0033 -2.5510
v  -27.8309 6.3198 -2.5510
# 8 vertices

vn -0.8660 -0.5000 -0.0000
vn 0.8660 0.5000 -0.0000
vn 0.0000 0.0000 1.0000
vn 0.5000 -0.8660 -0.0000
vn 0.0000 0.0000 -1.0000
vn -0.5000 0.8660 -0.0000
# 6 vertex normals

vt 0.2275 0.0020 0.0000
vt 0.2275 0.5251 0.0000
vt 0.0020 0.5251 0.0000
vt 0.0020 0.0020 0.0000
vt 0.2385 0.0020 0.0000
vt 0.4639 0.0020 0.0000
vt 0.4639 0.5251 0.0000
vt 0.2385 0.5251 0.0000
vt 0.2385 0.5361 0.0000
vt 0.4639 0.5361 0.0000
vt 0.4639 0.5807 0.0000
vt 0.2385 0.5807 0.0000
vt 0.4749 0.0576 0.0000
vt 0.9980 0.0576 0.0000
vt 0.9980 0.1022 0.0000
vt 0.4749 0.1022 0.0000
vt 0.0020 0.5361 0.0000
vt 0.2275 0.5361 0.0000
vt 0.2275 0.5807 0.0000
vt 0.0020 0.5807 0.0000
vt 0.4749 0.0020 0.0000
vt 0.9980 0.0020 0.0000
vt 0.9980 0.0466 0.0000
vt 0.4749 0.0466 0.0000
# 24 texture coords

g Box010
usemtl Standardmaterial
s 2
f 9/25/7 10/26/7 11/27/7 12/28/7 
s 4
f 13/29/8 14/30/8 15/31/8 16/32/8 
s 8
f 9/33/9 12/34/9 14/35/9 13/36/9 
s 16
f 12/37/10 11/38/10 15/39/10 14/40/10 
s 32
f 11/41/11 10/42/11 16/43/11 15/44/11 
s 64
f 10/45/12 9/46/12 13/47/12 16/48/12 
# 6 polygons

#
# object Box011
#

v  -27.4523 3.7996 -0.6695
v  -27.4523 3.7996 -1.0212
v  -27.4523 5.6492 -1.0212
v  -27.4523 5.6492 -0.6695
v  -27.6603 3.7996 -0.6695
v  -27.6603 5.6492 -0.6695
v  -27.6603 5.6492 -1.0212
v  -27.6603 3.7996 -1.0212
# 8 vertices

vn 1.0000 0.0000 -0.0000
vn -1.0000 -0.0000 -0.0000
vn 0.0000 0.0000 1.0000
vn -0.0000 1.0000 -0.0000
vn 0.0000 0.0000 -1.0000
vn 0.0000 -1.0000 -0.0000
# 6 vertex normals

vt 0.9980 0.0020 0.0000
vt 0.9980 0.1166 0.0000
vt 0.0020 0.1166 0.0000
vt 0.0020 0.0020 0.0000
vt 0.0020 0.1287 0.0000
vt 0.9980 0.1287 0.0000
vt 0.9980 0.2433 0.0000
vt 0.0020 0.2433 0.0000
vt 0.0020 0.3292 0.0000
vt 0.9980 0.3292 0.0000
vt 0.9980 0.3910 0.0000
vt 0.0020 0.3910 0.0000
vt 0.0020 0.4770 0.0000
vt 0.1166 0.4770 0.0000
vt 0.1166 0.5388 0.0000
vt 0.0020 0.5388 0.0000
vt 0.0020 0.2554 0.0000
vt 0.9980 0.2554 0.0000
vt 0.9980 0.3171 0.0000
vt 0.0020 0.3171 0.0000
vt 0.0020 0.4031 0.0000
vt 0.1166 0.4031 0.0000
vt 0.1166 0.4649 0.0000
vt 0.0020 0.4649 0.0000
# 24 texture coords

g Box011
usemtl Standardmaterial
s 2
f 17/49/13 18/50/13 19/51/13 20/52/13 
s 4
f 21/53/14 22/54/14 23/55/14 24/56/14 
s 8
f 17/57/15 20/58/15 22/59/15 21/60/15 
s 16
f 20/61/16 19/62/16 23/63/16 22/64/16 
s 32
f 19/65/17 18/66/17 24/67/17 23/68/17 
s 64
f 18/69/18 17/70/18 21/71/18 24/72/18 
# 6 polygons

#
# object Box012
#

v  -28.0758 7.8750 0.1778
v  -28.0758 7.8750 -1.8657
v  -27.4972 7.8750 -1.8657
v  -27.4972 7.8750 0.1778
v  -28.0758 8.4637 0.1778
v  -27.4201 8.4637 0.1778
v  -27.4201 8.4637 -1.8657
v  -28.0758 8.4637 -1.8657
v  -27.5659 8.0335 0.0297
v  -27.5659 8.0335 -1.7175
v  -27.5273 8.3283 -1.7175
v  -27.5273 8.3283 0.0297
v  -27.4779 8.0219 -1.7175
v  -27.4779 8.0219 0.0297
v  -27.4393 8.3168 -1.7175
v  -27.4393 8.3168 0.0297
# 16 vertices

vn 0.0000 -1.0000 -0.0000
vn 0.0000 1.0000 -0.0000
vn 0.0000 0.0000 1.0000
vn 0.9915 -0.1299 -0.0000
vn 0.0000 0.0000 -1.0000
vn -1.0000 0.0000 -0.0000
vn 0.9915 -0.1299 0.0000
vn 0.1299 0.9915 -0.0000
vn -0.1299 -0.9915 -0.0000
# 9 vertex normals

vt 0.9980 0.0020 0.0000
vt 0.9980 0.4706 0.0000
vt 0.8653 0.4706 0.0000
vt 0.8653 0.0020 0.0000
vt 0.6972 0.0020 0.0000
vt 0.8476 0.0020 0.0000
vt 0.8476 0.4706 0.0000
vt 0.6972 0.4706 0.0000
vt 0.6972 0.4884 0.0000
vt 0.8299 0.4884 0.0000
vt 0.8476 0.6233 0.0000
vt 0.6972 0.6233 0.0000
vt 0.4884 0.6972 0.0000
vt 0.8890 0.6972 0.0000
vt 0.8890 0.7654 0.0000
vt 0.4884 0.7654 0.0000
vt 0.5060 0.8511 0.0000
vt 0.6387 0.8511 0.0000
vt 0.6387 0.9860 0.0000
vt 0.4884 0.9860 0.0000
vt 0.0020 0.8511 0.0000
vt 0.4706 0.8511 0.0000
vt 0.4706 0.9860 0.0000
vt 0.0020 0.9860 0.0000
vt 0.0020 0.6972 0.0000
vt 0.4706 0.6972 0.0000
vt 0.4366 0.7312 0.0000
vt 0.0360 0.7312 0.0000
vt 0.4706 0.8333 0.0000
vt 0.4366 0.7993 0.0000
vt 0.0020 0.8333 0.0000
vt 0.0360 0.7993 0.0000
vt 0.6795 0.0164 0.0000
vt 0.3961 0.2997 0.0000
vt 0.3817 0.2853 0.0000
vt 0.6651 0.0020 0.0000
vt 0.3479 0.3479 0.0000
vt 0.3335 0.3335 0.0000
vt 0.0646 0.6312 0.0000
vt 0.0502 0.6168 0.0000
vt 0.0164 0.6794 0.0000
vt 0.0020 0.6651 0.0000
# 42 texture coords

g Box012
usemtl Standardmaterial
s 2
f 25/73/19 26/74/19 27/75/19 28/76/19 
s 4
f 29/77/20 30/78/20 31/79/20 32/80/20 
s 8
f 25/81/21 28/82/21 30/83/21 29/84/21 
s 16
f 33/85/22 34/86/22 35/87/22 36/88/22 
s 32
f 27/89/23 26/90/23 32/91/23 31/92/23 
s 64
f 26/93/24 25/94/24 29/95/24 32/96/24 
s off
f 28/97/22 27/98/22 37/99/22 38/100/22 
f 27/98/25 31/101/25 39/102/25 37/99/25 
f 31/101/22 30/103/22 40/104/22 39/102/22 
f 30/103/22 28/97/22 38/100/22 40/104/22 
f 38/105/26 37/106/26 34/107/26 33/108/26 
f 37/106/21 39/109/21 35/110/21 34/107/21 
f 39/109/27 40/111/27 36/112/27 35/110/27 
f 40/111/23 38/113/23 33/114/23 36/112/23 
# 14 polygons

