# 3ds Max Wavefront OBJ Exporter v0.97b - (c)2007 guruware
# File Created: 19.01.2017 22:53:41

mtllib GunnerPrimarySight.mtl

#
# object PrimaryGunsight
#

v  3.8344 17.1783 -5.6848
v  4.0222 17.2287 -5.6848
v  4.0222 17.2287 -4.7895
v  3.8344 17.1783 -4.7895
v  4.1598 17.3662 -5.6848
v  4.1598 17.3662 -4.7895
v  4.2101 17.5541 -5.6848
v  4.2101 17.5541 -4.7895
v  4.1598 17.7420 -5.6848
v  4.1598 17.7420 -4.7895
v  4.0222 17.8795 -5.6848
v  4.0222 17.8795 -4.7895
v  3.8344 17.9298 -5.6848
v  3.8344 17.9298 -4.7895
v  3.6465 17.8795 -5.6848
v  3.6465 17.8795 -4.7895
v  3.5089 17.7420 -5.6848
v  3.5089 17.7420 -4.7895
v  3.4586 17.5541 -5.6848
v  3.4586 17.5541 -4.7895
v  3.5089 17.3662 -5.6848
v  3.5089 17.3662 -4.7895
v  3.6465 17.2287 -5.6848
v  3.6465 17.2287 -4.7895
v  4.1240 17.0523 -4.7895
v  3.8344 16.9747 -4.7895
v  4.3361 17.2644 -4.7895
v  4.4137 17.5541 -4.7895
v  4.3361 17.8437 -4.7895
v  4.1240 18.0558 -4.7895
v  3.8344 18.1334 -4.7895
v  3.5447 18.0558 -4.7895
v  3.3326 17.8437 -4.7895
v  3.2550 17.5541 -4.7895
v  3.3326 17.2644 -4.7895
v  3.5447 17.0523 -4.7895
v  4.0822 17.1248 -3.9500
v  3.8344 17.0584 -3.9500
v  4.2636 17.3062 -3.9500
v  4.3300 17.5541 -3.9500
v  4.2636 17.8019 -3.9500
v  4.0822 17.9833 -3.9500
v  3.8344 18.0497 -3.9500
v  3.5865 17.9833 -3.9500
v  3.4051 17.8019 -3.9500
v  3.3387 17.5541 -3.9500
v  3.4051 17.3062 -3.9500
v  3.5865 17.1248 -3.9500
v  4.0297 17.2157 -3.9500
v  3.8344 17.1634 -3.9500
v  4.1727 17.3587 -3.9500
v  4.2250 17.5541 -3.9500
v  4.1727 17.7494 -3.9500
v  4.0297 17.8924 -3.9500
v  3.8344 17.9447 -3.9500
v  3.6390 17.8924 -3.9500
v  3.4960 17.7494 -3.9500
v  3.4437 17.5541 -3.9500
v  3.4960 17.3587 -3.9500
v  3.6390 17.2157 -3.9500
v  3.9937 17.2781 -4.1618
v  3.8344 17.2354 -4.1618
v  4.1103 17.3947 -4.1618
v  4.1530 17.5541 -4.1618
v  4.1103 17.7134 -4.1618
v  3.9937 17.8301 -4.1618
v  3.8344 17.8728 -4.1618
v  3.6750 17.8301 -4.1618
v  3.5584 17.7134 -4.1618
v  3.5157 17.5541 -4.1618
v  3.5584 17.3947 -4.1618
v  3.6750 17.2781 -4.1618
v  3.8344 17.5541 -4.1618
# 73 vertices

vn -0.0000 -1.0000 0.0000
vn 0.5000 -0.8660 -0.0000
vn 0.8660 -0.5000 -0.0000
vn 1.0000 0.0000 -0.0000
vn 0.8660 0.5000 -0.0000
vn 0.5000 0.8660 -0.0000
vn 0.0000 1.0000 -0.0000
vn -0.5000 0.8660 0.0000
vn -0.8660 0.5000 0.0000
vn -1.0000 0.0000 0.0000
vn -0.8660 -0.5000 0.0000
vn -0.5000 -0.8660 0.0000
vn -0.0000 0.0000 -1.0000
vn 0.2576 -0.9615 0.0959
vn 0.7039 -0.7039 0.0959
vn 0.9615 -0.2576 0.0959
vn 0.9615 0.2576 0.0959
vn 0.7039 0.7039 0.0959
vn 0.2576 0.9615 0.0959
vn -0.2576 0.9615 0.0959
vn -0.7039 0.7039 0.0959
vn -0.9615 0.2576 0.0959
vn -0.9615 -0.2576 0.0959
vn -0.7039 -0.7039 0.0959
vn -0.2576 -0.9615 0.0959
vn 0.0000 -0.0000 1.0000
vn -0.2459 0.9177 0.3119
vn -0.6718 0.6718 0.3119
vn -0.9177 0.2459 0.3119
vn -0.9177 -0.2459 0.3119
vn -0.6718 -0.6718 0.3119
vn -0.2459 -0.9177 0.3119
vn 0.2459 -0.9177 0.3119
vn 0.6718 -0.6718 0.3119
vn 0.9177 -0.2459 0.3119
vn 0.9177 0.2459 0.3119
vn 0.6718 0.6718 0.3119
vn 0.2459 0.9177 0.3119
vn 0.0000 0.0000 1.0000
vn -0.0000 0.0000 1.0000
vn -0.0000 -0.0000 1.0000
# 41 vertex normals

vt 0.6228 0.2355 0.0000
vt 0.6700 0.2355 1.0000
vt 0.6700 0.4529 1.0000
vt 0.6228 0.4529 0.0000
vt 0.7172 0.2355 0.0000
vt 0.7172 0.4529 0.0000
vt 0.7644 0.2355 0.0000
vt 0.7644 0.4529 0.0000
vt 0.3433 0.2355 0.0000
vt 0.3905 0.2355 0.0000
vt 0.3905 0.4529 0.0000
vt 0.3433 0.4529 0.0000
vt 0.4377 0.2355 0.0000
vt 0.4377 0.4529 0.0000
vt 0.4850 0.2355 0.0000
vt 0.4850 0.4529 0.0000
vt 0.5322 0.2355 0.0000
vt 0.5322 0.4529 0.0000
vt 0.5794 0.2355 1.0000
vt 0.5794 0.4529 1.0000
vt 0.6266 0.2355 0.0000
vt 0.6266 0.4529 0.0000
vt 0.6739 0.2355 0.0000
vt 0.6739 0.4529 0.0000
vt 0.7211 0.2355 0.0000
vt 0.7211 0.4529 0.0000
vt 0.7683 0.2355 0.0000
vt 0.7683 0.4529 0.0000
vt 0.1704 0.2732 0.0000
vt 0.1216 0.2863 0.0000
vt 0.0952 0.2405 0.0000
vt 0.1704 0.2204 0.0000
vt 0.0859 0.3220 0.0000
vt 0.0402 0.2955 0.0000
vt 0.0729 0.3707 0.2500
vt 0.0201 0.3707 0.0000
vt 0.0859 0.4195 0.0000
vt 0.0402 0.4459 0.0000
vt 0.1216 0.4551 0.0000
vt 0.0952 0.5009 0.0000
vt 0.1704 0.4682 0.0000
vt 0.1704 0.5210 0.0000
vt 0.2191 0.4551 0.0000
vt 0.2455 0.5009 0.0000
vt 0.2548 0.4195 0.0000
vt 0.3006 0.4459 0.0000
vt 0.2679 0.3707 0.2500
vt 0.3207 0.3707 0.0000
vt 0.2548 0.3220 0.0000
vt 0.3006 0.2955 0.0000
vt 0.2191 0.2863 0.0000
vt 0.2455 0.2405 0.0000
vt 0.0091 0.0668 0.0000
vt 0.0646 0.0508 0.0000
vt 0.1058 0.2078 0.0000
vt 0.0584 0.2215 0.0000
vt 0.1207 0.0375 0.0000
vt 0.1538 0.1964 0.0000
vt 0.1775 0.0272 0.0000
vt 0.2024 0.1876 0.0000
vt 0.2347 0.0198 0.0000
vt 0.2514 0.1813 0.0000
vt 0.2922 0.0154 0.0000
vt 0.3006 0.1775 0.0000
vt 0.3499 0.0139 0.0000
vt 0.3499 0.1762 0.0000
vt 0.4076 0.0154 0.0000
vt 0.3993 0.1775 0.0000
vt 0.4651 0.0198 0.0000
vt 0.4485 0.1813 0.0000
vt 0.5224 0.0272 0.0000
vt 0.4975 0.1876 0.0000
vt 0.5791 0.0375 0.0000
vt 0.5460 0.1964 0.0000
vt 0.6353 0.0508 0.0000
vt 0.5941 0.2078 0.0000
vt 0.6907 0.0668 0.0000
vt 0.6415 0.2215 0.0000
vt 0.7323 0.4716 0.0000
vt 0.8594 0.5057 0.0000
vt 0.8325 0.5523 0.0000
vt 0.7323 0.5255 0.0000
vt 0.9525 0.5987 0.0000
vt 0.9058 0.6256 0.0000
vt 0.9865 0.7258 0.0000
vt 0.9327 0.7258 0.0000
vt 0.9525 0.8529 0.0000
vt 0.9058 0.8260 0.0000
vt 0.8594 0.9460 0.0000
vt 0.8325 0.8993 0.0000
vt 0.7323 0.9800 0.0000
vt 0.7323 0.9262 0.0000
vt 0.6052 0.9460 0.0000
vt 0.6321 0.8993 0.0000
vt 0.5122 0.8529 0.0000
vt 0.5588 0.8260 0.0000
vt 0.4781 0.7258 0.0000
vt 0.5320 0.7258 0.0000
vt 0.5122 0.5987 0.0000
vt 0.5588 0.6256 0.0000
vt 0.6052 0.5057 0.0000
vt 0.6321 0.5523 0.0000
vt 0.8140 0.5843 0.0000
vt 0.7323 0.5624 0.0000
vt 0.8739 0.6441 0.0000
vt 0.8958 0.7258 0.0000
vt 0.8739 0.8075 0.0000
vt 0.8140 0.8674 0.0000
vt 0.7323 0.8893 0.0000
vt 0.6506 0.8674 0.0000
vt 0.5908 0.8075 0.0000
vt 0.5689 0.7258 0.0000
vt 0.5908 0.6441 0.0000
vt 0.6506 0.5843 0.0000
vt 0.2499 0.9751 0.0000
vt 0.1400 0.9456 0.0000
vt 0.2480 0.7552 0.0000
vt 0.0595 0.8651 0.0000
vt 0.0300 0.7552 0.2500
vt 0.0595 0.6453 0.0000
vt 0.1400 0.5648 0.0000
vt 0.2499 0.5354 0.0000
vt 0.3598 0.5648 0.0000
vt 0.4384 0.6453 0.0000
vt 0.4678 0.7552 0.2500
vt 0.4403 0.8651 0.0000
vt 0.3598 0.9456 0.0000
# 127 texture coords

g PrimaryGunsight
usemtl Standardmaterial
s 8
f 1/1/1 2/2/2 3/3/2 4/4/1 
f 2/2/2 5/5/3 6/6/3 3/3/2 
f 5/5/3 7/7/4 8/8/4 6/6/3 
f 7/9/4 9/10/5 10/11/5 8/12/4 
f 9/10/5 11/13/6 12/14/6 10/11/5 
f 11/13/6 13/15/7 14/16/7 12/14/6 
f 13/15/7 15/17/8 16/18/8 14/16/7 
f 15/17/8 17/19/9 18/20/9 16/18/8 
f 17/19/9 19/21/10 20/22/10 18/20/9 
f 19/21/10 21/23/11 22/24/11 20/22/10 
f 21/23/11 23/25/12 24/26/12 22/24/11 
f 23/25/12 1/27/1 4/28/1 24/26/12 
s off
f 4/29/13 3/30/13 25/31/13 26/32/13 
f 3/30/13 6/33/13 27/34/13 25/31/13 
f 6/33/13 8/35/13 28/36/13 27/34/13 
f 8/35/13 10/37/13 29/38/13 28/36/13 
f 10/37/13 12/39/13 30/40/13 29/38/13 
f 12/39/13 14/41/13 31/42/13 30/40/13 
f 14/41/13 16/43/13 32/44/13 31/42/13 
f 16/43/13 18/45/13 33/46/13 32/44/13 
f 18/45/13 20/47/13 34/48/13 33/46/13 
f 20/47/13 22/49/13 35/50/13 34/48/13 
f 22/49/13 24/51/13 36/52/13 35/50/13 
f 24/51/13 4/29/13 26/32/13 36/52/13 
f 26/53/14 25/54/14 37/55/14 38/56/14 
f 25/54/15 27/57/15 39/58/15 37/55/15 
f 27/57/16 28/59/16 40/60/16 39/58/16 
f 28/59/17 29/61/17 41/62/17 40/60/17 
f 29/61/18 30/63/18 42/64/18 41/62/18 
f 30/63/19 31/65/19 43/66/19 42/64/19 
f 31/65/20 32/67/20 44/68/20 43/66/20 
f 32/67/21 33/69/21 45/70/21 44/68/21 
f 33/69/22 34/71/22 46/72/22 45/70/22 
f 34/71/23 35/73/23 47/74/23 46/72/23 
f 35/73/24 36/75/24 48/76/24 47/74/24 
f 36/75/25 26/77/25 38/78/25 48/76/25 
f 38/79/26 37/80/26 49/81/26 50/82/26 
f 37/80/26 39/83/26 51/84/26 49/81/26 
f 39/83/26 40/85/26 52/86/26 51/84/26 
f 40/85/26 41/87/26 53/88/26 52/86/26 
f 41/87/26 42/89/26 54/90/26 53/88/26 
f 42/89/26 43/91/26 55/92/26 54/90/26 
f 43/91/26 44/93/26 56/94/26 55/92/26 
f 44/93/26 45/95/26 57/96/26 56/94/26 
f 45/95/26 46/97/26 58/98/26 57/96/26 
f 46/97/26 47/99/26 59/100/26 58/98/26 
f 47/99/26 48/101/26 60/102/26 59/100/26 
f 48/101/26 38/79/26 50/82/26 60/102/26 
f 50/82/27 49/81/27 61/103/27 62/104/27 
f 49/81/28 51/84/28 63/105/28 61/103/28 
f 51/84/29 52/86/29 64/106/29 63/105/29 
f 52/86/30 53/88/30 65/107/30 64/106/30 
f 53/88/31 54/90/31 66/108/31 65/107/31 
f 54/90/32 55/92/32 67/109/32 66/108/32 
f 55/92/33 56/94/33 68/110/33 67/109/33 
f 56/94/34 57/96/34 69/111/34 68/110/34 
f 57/96/35 58/98/35 70/112/35 69/111/35 
f 58/98/36 59/100/36 71/113/36 70/112/36 
f 59/100/37 60/102/37 72/114/37 71/113/37 
f 60/102/38 50/82/38 62/104/38 72/114/38 
f 62/115/26 61/116/26 73/117/26 
f 61/116/26 63/118/26 73/117/26 
f 63/118/26 64/119/26 73/117/26 
f 64/119/39 65/120/39 73/117/39 
f 65/120/39 66/121/39 73/117/39 
f 66/121/39 67/122/39 73/117/39 
f 67/122/40 68/123/40 73/117/40 
f 68/123/40 69/124/40 73/117/40 
f 69/124/40 70/125/40 73/117/40 
f 70/125/41 71/126/41 73/117/41 
f 71/126/41 72/127/41 73/117/41 
f 72/127/41 62/115/41 73/117/41 
# 60 polygons - 12 triangles

