# 3ds Max Wavefront OBJ Exporter v0.97b - (c)2007 guruware
# File Created: 19.01.2017 23:19:09

mtllib gunnerSecondarySight.mtl

#
# object GunnerSecondarySight
#

v  4.4388 19.1391 -4.5635
v  4.4388 18.7878 -4.5770
v  5.9687 18.7878 -4.5770
v  5.9687 19.1391 -4.5635
v  4.3900 20.8353 -4.7952
v  6.0176 20.8353 -4.7952
v  6.0176 20.8353 -5.4780
v  4.3900 20.8353 -5.4780
v  4.3900 19.3006 -4.7952
v  6.0176 19.3006 -4.7952
v  6.0176 19.3006 -5.4780
v  4.3900 19.3006 -5.4780
v  4.3900 19.1429 -5.4512
v  4.3900 19.2615 -4.7789
v  6.0176 19.1429 -5.4512
v  6.0176 19.2615 -4.7789
v  4.3900 18.9420 -5.3833
v  4.3900 19.2305 -4.7646
v  6.0176 18.9420 -5.3833
v  6.0176 19.2305 -4.7646
v  4.3900 18.7838 -5.2398
v  4.3900 19.2227 -4.7168
v  6.0176 18.7838 -5.2398
v  6.0176 19.2227 -4.7168
v  4.3900 18.7187 -4.4688
v  4.3900 19.1862 -4.4509
v  6.0176 18.7187 -4.4688
v  6.0176 19.1862 -4.4509
v  4.4388 18.7768 -4.4666
v  4.4388 19.1281 -4.4531
v  5.9687 18.7768 -4.4666
v  5.9687 19.1281 -4.4531
# 32 vertices

vn 0.0000 -0.0533 0.9986
vn 0.0000 1.0000 -0.0000
vn 0.0000 0.0000 1.0000
vn 1.0000 0.0000 -0.0000
vn 0.0000 0.0000 -1.0000
vn -1.0000 0.0000 -0.0000
vn 0.0000 -0.2297 -0.9733
vn 0.0000 0.5030 0.8643
vn 0.0000 -0.4259 -0.9048
vn 0.0000 0.5411 0.8410
vn 0.0000 -0.7843 -0.6204
vn 0.0000 0.9931 0.1174
vn 0.0000 -0.9982 -0.0605
vn 0.0000 0.9952 0.0980
vn -0.0000 -0.0533 0.9986
vn 0.0000 0.9975 0.0714
vn 0.0000 -0.9975 -0.0714
# 17 vertex normals

vt 0.2532 0.9153 0.0000
vt 0.2505 0.7838 0.0000
vt 0.9307 0.7701 0.0000
vt 0.9334 0.9016 0.0000
vt 0.3742 0.3951 0.0000
vt 0.7257 0.3951 0.0000
vt 0.7257 0.5677 0.0000
vt 0.3742 0.5677 0.0000
vt 0.7268 0.2806 0.0000
vt 0.3754 0.2871 0.0000
vt 0.3702 0.0085 0.0000
vt 0.7217 0.0020 0.0000
vt 0.8182 0.1382 0.0000
vt 0.9645 0.1382 0.0000
vt 0.9645 0.4670 0.0000
vt 0.8182 0.4670 0.0000
vt 0.0020 0.3134 0.0000
vt 0.3535 0.3134 0.0000
vt 0.3535 0.5920 0.0000
vt 0.0020 0.5920 0.0000
vt 0.0169 0.7006 0.0000
vt 0.1893 0.7098 0.0000
vt 0.1744 0.9880 0.0000
vt 0.0020 0.9788 0.0000
vt 0.0252 0.6723 0.0000
vt 0.1938 0.7029 0.0000
vt 0.0020 0.2839 0.0000
vt 0.3535 0.2839 0.0000
vt 0.8147 0.1298 0.0000
vt 0.9588 0.1044 0.0000
vt 0.7270 0.2888 0.0000
vt 0.3755 0.2953 0.0000
vt 0.0443 0.6368 0.0000
vt 0.1977 0.6975 0.0000
vt 0.0020 0.2436 0.0000
vt 0.3535 0.2436 0.0000
vt 0.8116 0.1232 0.0000
vt 0.9442 0.0614 0.0000
vt 0.7271 0.2955 0.0000
vt 0.3757 0.3020 0.0000
vt 0.0821 0.6101 0.0000
vt 0.2099 0.6967 0.0000
vt 0.0020 0.1973 0.0000
vt 0.3535 0.1973 0.0000
vt 0.8014 0.1215 0.0000
vt 0.9135 0.0275 0.0000
vt 0.7273 0.3077 0.0000
vt 0.3759 0.3141 0.0000
vt 0.2774 0.6087 0.0000
vt 0.2774 0.6937 0.0000
vt 0.0020 0.0020 0.0000
vt 0.3535 0.0020 0.0000
vt 0.7444 0.1137 0.0000
vt 0.7482 0.0135 0.0000
vt 0.7286 0.3752 0.0000
vt 0.3771 0.3817 0.0000
vt 0.7231 0.5769 0.0000
vt 0.7231 0.6619 0.0000
vt 0.7126 0.6513 0.0000
vt 0.7126 0.5874 0.0000
vt 0.3716 0.6619 0.0000
vt 0.3822 0.6513 0.0000
vt 0.3716 0.5769 0.0000
vt 0.3822 0.5874 0.0000
vt 0.1955 0.9154 0.0000
vt 0.1929 0.7839 0.0000
vt 0.2494 0.7262 0.0000
vt 0.9296 0.7125 0.0000
vt 0.9883 0.7679 0.0000
vt 0.9910 0.8994 0.0000
vt 0.9346 0.9593 0.0000
vt 0.2543 0.9729 0.0000
# 72 texture coords

g GunnerSecondarySight
usemtl Standardmaterial
s 2
f 1/1/1 2/2/1 3/3/1 4/4/1 
s 4
f 5/5/2 6/6/2 7/7/2 8/8/2 
s 8
f 9/9/3 10/10/3 6/11/3 5/12/3 
s 16
f 10/13/4 11/14/4 7/15/4 6/16/4 
s 32
f 11/17/5 12/18/5 8/19/5 7/20/5 
s 64
f 12/21/6 9/22/6 5/23/6 8/24/6 
s off
f 9/22/6 12/21/6 13/25/6 14/26/6 
f 12/18/7 11/17/7 15/27/7 13/28/7 
f 11/14/4 10/13/4 16/29/4 15/30/4 
f 10/10/8 9/9/8 14/31/8 16/32/8 
f 14/26/6 13/25/6 17/33/6 18/34/6 
f 13/28/9 15/27/9 19/35/9 17/36/9 
f 15/30/4 16/29/4 20/37/4 19/38/4 
f 16/32/10 14/31/10 18/39/10 20/40/10 
f 18/34/6 17/33/6 21/41/6 22/42/6 
f 17/36/11 19/35/11 23/43/11 21/44/11 
f 24/45/4 23/46/4 19/38/4 20/37/4 
f 20/40/12 18/39/12 22/47/12 24/48/12 
f 22/42/6 21/41/6 25/49/6 26/50/6 
f 21/44/13 23/43/13 27/51/13 25/52/13 
f 23/46/4 24/45/4 28/53/4 27/54/4 
f 24/48/14 22/47/14 26/55/14 28/56/14 
f 26/57/15 25/58/15 29/59/15 30/60/15 
f 25/58/1 27/61/1 31/62/1 29/59/1 
f 27/61/1 28/63/1 32/64/1 31/62/1 
f 28/63/1 26/57/1 30/60/1 32/64/1 
f 30/65/4 29/66/4 2/2/4 1/1/4 
f 29/67/16 31/68/16 3/3/16 2/2/16 
f 31/69/6 32/70/6 4/4/6 3/3/6 
f 32/71/17 30/72/17 1/1/17 4/4/17 
# 30 polygons

