# 3ds Max Wavefront OBJ Exporter v0.97b - (c)2007 guruware
# File Created: 19.01.2017 20:37:24

mtllib HullInterior.mtl

#
# object HullInteriorSpace
#

v  -9.2787 4.1719 -22.1302
v  9.3891 4.1719 -22.1302
v  9.3891 4.1719 7.8167
v  -9.2787 4.1719 7.8167
v  -9.2787 5.4357 7.8167
v  -9.2787 7.6647 -22.4057
v  9.3891 5.4357 7.8167
v  9.3891 7.6647 -22.4057
v  0.0552 13.7244 6.7654
v  -2.4041 13.7244 6.3758
v  -2.4041 13.2627 6.3758
v  0.0552 13.2627 6.7654
v  -4.6227 13.7244 5.2454
v  -4.6227 13.2627 5.2454
v  -6.3834 13.7244 3.4848
v  -6.3834 13.2627 3.4848
v  -7.5138 13.7244 1.2662
v  -7.5138 13.2627 1.2662
v  -7.9033 13.7244 -1.1931
v  -7.9033 13.2627 -1.1931
v  -7.5138 13.7244 -3.6524
v  -7.5138 13.2627 -3.6524
v  -6.3834 13.7244 -5.8710
v  -6.3834 13.2627 -5.8710
v  -4.6227 13.7244 -7.6317
v  -4.6227 13.2627 -7.6317
v  -2.4041 13.7244 -8.7621
v  -2.4041 13.2627 -8.7621
v  0.0552 13.7244 -9.1516
v  0.0552 13.2627 -9.1516
v  2.5145 13.7244 -8.7621
v  2.5145 13.2627 -8.7621
v  4.7331 13.7244 -7.6317
v  4.7331 13.2627 -7.6317
v  6.4938 13.7244 -5.8710
v  6.4938 13.2627 -5.8710
v  7.6242 13.7244 -3.6525
v  7.6242 13.2627 -3.6525
v  8.0137 13.7244 -1.1931
v  8.0137 13.2627 -1.1931
v  7.6242 13.7244 1.2662
v  7.6242 13.2627 1.2662
v  6.4938 13.7244 3.4847
v  6.4938 13.2627 3.4847
v  4.7331 13.7244 5.2454
v  4.7331 13.2627 5.2454
v  2.5145 13.7244 6.3758
v  2.5145 13.2627 6.3758
v  9.3891 13.2627 7.8167
v  9.3891 13.2627 -18.0022
v  -9.2787 13.2627 -18.0022
v  -9.2787 13.2627 7.8167
v  -9.2787 8.8367 -18.0022
v  -9.2787 8.8367 7.8167
v  9.3891 8.8367 7.8167
v  9.3891 8.8367 -18.0022
# 56 vertices

vn 0.0000 -1.0000 -0.0000
vn -1.0000 0.0000 0.0000
vn 0.0000 0.0000 1.0000
vn 1.0000 0.0000 -0.0000
vn -0.0000 0.5964 -0.8027
vn -0.0000 -0.1725 -0.9850
vn -0.0000 -0.0000 1.0000
vn -0.3837 -0.0000 0.9234
vn -0.6815 0.0000 0.7319
vn -0.8703 -0.0000 0.4924
vn -0.9695 -0.0000 0.2450
vn -1.0000 -0.0000 0.0000
vn -0.9695 0.0000 -0.2450
vn -0.8703 0.0000 -0.4924
vn -0.6815 -0.0000 -0.7319
vn -0.3837 -0.0000 -0.9234
vn -0.0000 -0.0000 -1.0000
vn 0.3837 -0.0000 -0.9234
vn 0.6815 0.0000 -0.7319
vn 0.8703 -0.0000 -0.4924
vn 0.9695 0.0000 -0.2450
vn 1.0000 -0.0000 0.0000
vn 1.0000 -0.0000 -0.0000
vn 0.9695 -0.0000 0.2450
vn 0.8703 -0.0000 0.4924
vn 0.6815 -0.0000 0.7319
vn 0.3837 -0.0000 0.9234
vn 0.0000 1.0000 -0.0000
vn -0.0000 0.0000 -1.0000
vn -0.0000 0.6637 -0.7480
# 30 vertex normals

vt 0.0020 0.0020 0.0000
vt 0.3652 0.0020 0.0000
vt 0.3652 0.5846 0.0000
vt 0.0020 0.5846 0.0000
vt 0.9259 0.4518 0.0000
vt 0.9071 0.4518 0.0000
vt 0.8739 0.0020 0.0000
vt 0.9259 0.0061 0.0000
vt 0.6649 0.7792 0.0000
vt 0.6649 0.5354 0.0000
vt 0.6814 0.5354 0.0000
vt 0.6814 0.7792 0.0000
vt 0.5316 0.9811 0.0000
vt 0.4796 0.9852 0.0000
vt 0.5128 0.5354 0.0000
vt 0.5316 0.5354 0.0000
vt 0.0877 0.9815 0.0000
vt 0.0877 0.6158 0.0000
vt 0.1185 0.6158 0.0000
vt 0.1185 0.9815 0.0000
vt 0.9574 0.4926 0.0000
vt 0.9573 0.4498 0.0000
vt 0.9620 0.4498 0.0000
vt 0.9620 0.4926 0.0000
vt 0.9573 0.4044 0.0000
vt 0.9619 0.4044 0.0000
vt 0.9573 0.3551 0.0000
vt 0.9619 0.3551 0.0000
vt 0.9572 0.3023 0.0000
vt 0.9618 0.3023 0.0000
vt 0.9572 0.2473 0.0000
vt 0.9618 0.2473 0.0000
vt 0.9571 0.1924 0.0000
vt 0.9618 0.1924 0.0000
vt 0.9571 0.1395 0.0000
vt 0.9617 0.1395 0.0000
vt 0.9571 0.0903 0.0000
vt 0.9617 0.0903 0.0000
vt 0.9571 0.0449 0.0000
vt 0.9617 0.0449 0.0000
vt 0.9571 0.0020 0.0000
vt 0.9617 0.0020 0.0000
vt 0.9980 0.4926 0.0000
vt 0.9934 0.4926 0.0000
vt 0.9934 0.4498 0.0000
vt 0.9980 0.4498 0.0000
vt 0.9934 0.4044 0.0000
vt 0.9980 0.4044 0.0000
vt 0.9933 0.3551 0.0000
vt 0.9979 0.3551 0.0000
vt 0.9933 0.3023 0.0000
vt 0.9979 0.3023 0.0000
vt 0.9932 0.2473 0.0000
vt 0.9978 0.2473 0.0000
vt 0.9932 0.1924 0.0000
vt 0.9978 0.1924 0.0000
vt 0.9932 0.1395 0.0000
vt 0.9978 0.1395 0.0000
vt 0.9931 0.0903 0.0000
vt 0.9977 0.0903 0.0000
vt 0.9931 0.0449 0.0000
vt 0.9977 0.0449 0.0000
vt 0.9931 0.0020 0.0000
vt 0.9977 0.0020 0.0000
vt 0.3963 0.5043 0.0000
vt 0.3963 0.0020 0.0000
vt 0.4231 0.3290 0.0000
vt 0.4307 0.3769 0.0000
vt 0.4526 0.4200 0.0000
vt 0.4869 0.4543 0.0000
vt 0.5301 0.4763 0.0000
vt 0.5779 0.4838 0.0000
vt 0.4307 0.2812 0.0000
vt 0.4526 0.2380 0.0000
vt 0.4869 0.2038 0.0000
vt 0.5301 0.1818 0.0000
vt 0.5779 0.1742 0.0000
vt 0.6258 0.1818 0.0000
vt 0.6689 0.2038 0.0000
vt 0.7595 0.0020 0.0000
vt 0.7032 0.2380 0.0000
vt 0.7252 0.2812 0.0000
vt 0.7327 0.3290 0.0000
vt 0.7595 0.5043 0.0000
vt 0.7252 0.3769 0.0000
vt 0.7032 0.4200 0.0000
vt 0.6689 0.4543 0.0000
vt 0.6258 0.4763 0.0000
vt 0.7906 0.4518 0.0000
vt 0.7906 0.0675 0.0000
vt 0.8565 0.0675 0.0000
vt 0.8565 0.4518 0.0000
vt 0.5627 0.7792 0.0000
vt 0.5627 0.5354 0.0000
vt 0.6205 0.5354 0.0000
vt 0.6205 0.7792 0.0000
vt 0.3963 0.9197 0.0000
vt 0.3963 0.5354 0.0000
vt 0.4622 0.5354 0.0000
vt 0.4622 0.9197 0.0000
vt 0.1497 0.8595 0.0000
vt 0.1497 0.6158 0.0000
vt 0.2075 0.6158 0.0000
vt 0.2075 0.8595 0.0000
vt 0.0020 0.9815 0.0000
vt 0.0020 0.6158 0.0000
# 106 texture coords

g HullInteriorSpace
usemtl Standardmaterial
s 2
f 1/1/1 2/2/1 3/3/1 4/4/1 
s 8
f 4/5/2 5/6/2 6/7/2 1/8/2 
s 16
f 7/9/3 5/10/3 4/11/3 3/12/3 
s 32
f 2/13/4 8/14/4 7/15/4 3/16/4 
s 64
f 6/17/5 8/18/5 2/19/6 1/20/6 
s 2
f 9/21/7 10/22/8 11/23/8 12/24/7 
f 11/23/8 10/22/8 13/25/9 14/26/9 
f 14/26/9 13/25/9 15/27/10 16/28/10 
f 15/27/10 17/29/11 18/30/11 16/28/10 
f 17/29/11 19/31/12 20/32/12 18/30/11 
f 20/32/12 19/31/12 21/33/13 22/34/13 
f 22/34/13 21/33/13 23/35/14 24/36/14 
f 24/36/14 23/35/14 25/37/15 26/38/15 
f 25/37/15 27/39/16 28/40/16 26/38/15 
f 27/39/16 29/41/17 30/42/17 28/40/16 
f 30/43/17 29/44/17 31/45/18 32/46/18 
f 32/46/18 31/45/18 33/47/19 34/48/19 
f 34/48/19 33/47/19 35/49/20 36/50/20 
f 36/50/20 35/49/20 37/51/21 38/52/21 
f 37/51/21 39/53/22 40/54/23 38/52/21 
f 40/54/23 39/53/22 41/55/24 42/56/24 
f 42/56/24 41/55/24 43/57/25 44/58/25 
f 44/58/25 43/57/25 45/59/26 46/60/26 
f 46/60/26 45/59/26 47/61/27 48/62/27 
f 47/61/27 9/63/7 12/64/7 48/62/27 
s 4
f 49/65/28 50/66/28 40/67/28 42/68/28 
f 49/65/28 42/68/28 44/69/28 46/70/28 
f 49/65/28 46/70/28 48/71/28 12/72/28 
f 38/73/28 40/67/28 50/66/28 36/74/28 
f 34/75/28 36/74/28 50/66/28 32/76/28 
f 30/77/28 32/76/28 50/66/28 28/78/28 
f 26/79/28 28/78/28 50/66/28 51/80/28 
f 24/81/28 26/79/28 51/80/28 22/82/28 
f 20/83/28 22/82/28 51/80/28 52/84/28 
f 18/85/28 20/83/28 52/84/28 16/86/28 
f 14/87/28 16/86/28 52/84/28 11/88/28 
f 12/72/28 11/88/28 52/84/28 49/65/28 
s 8
f 52/89/2 51/90/2 53/91/2 54/92/2 
s 16
f 49/93/3 52/94/3 54/95/3 55/96/3 
s 32
f 50/97/4 49/98/4 55/99/4 56/100/4 
s 64
f 51/101/29 50/102/29 56/103/30 53/104/30 
s 8
f 54/92/2 53/91/2 6/7/2 5/6/2 
s 16
f 55/96/3 54/95/3 5/10/3 7/9/3 
s 32
f 56/100/4 55/99/4 7/15/4 8/14/4 
s 64
f 53/105/30 56/106/30 8/18/5 6/17/5 
# 45 polygons

