# 3ds Max Wavefront OBJ Exporter v0.97b - (c)2007 guruware
# File Created: 19.01.2017 23:21:25

mtllib pedal.mtl

#
# object Accelerator
#

v  -6.9532 5.6219 -20.7581
v  -6.9532 4.5973 -19.7335
v  -5.9027 4.5973 -19.7335
v  -5.9027 5.6219 -20.7581
v  -6.6696 3.9415 -21.3258
v  -6.1863 3.9415 -21.3258
v  -6.1863 3.9415 -20.4441
v  -6.6696 3.9415 -20.4441
v  -5.9027 5.3625 -21.0175
v  -6.9532 5.3625 -21.0175
v  -5.9027 4.3379 -19.9929
v  -6.9532 4.3379 -19.9929
v  -6.1863 5.1620 -20.8169
v  -6.6696 5.1620 -20.8169
v  -6.1863 4.5385 -20.1934
v  -6.6696 4.5385 -20.1934
v  -6.1863 4.8376 -21.0775
v  -6.6696 4.8376 -21.0775
v  -6.1863 4.3319 -20.3552
v  -6.6696 4.3319 -20.3552
v  -6.1863 4.3980 -21.2733
v  -6.6696 4.3980 -21.2733
v  -6.1863 4.1697 -20.4216
v  -6.6696 4.1697 -20.4216
# 24 vertices

vn 0.0000 0.7071 0.7071
vn 0.0000 -1.0000 0.0000
vn 0.0000 0.7071 -0.7071
vn 1.0000 0.0000 -0.0000
vn 0.0000 -0.7071 0.7071
vn -1.0000 0.0000 -0.0000
vn 0.0000 -0.7071 -0.7071
vn 0.0000 0.6263 -0.7796
vn 0.0000 -0.6165 0.7874
vn 0.0000 0.4068 -0.9135
vn 0.0000 -0.3790 0.9254
vn 0.0000 0.1143 -0.9934
vn 0.0000 -0.0980 0.9952
# 13 vertex normals

vt 0.2300 0.6835 0.0000
vt 0.2300 0.9980 0.0000
vt 0.0020 0.9980 0.0000
vt 0.0020 0.6835 0.0000
vt 0.5181 0.3282 0.0000
vt 0.4230 0.2872 0.0000
vt 0.4963 0.1046 0.0000
vt 0.5954 0.1510 0.0000
vt 0.5446 0.6684 0.0000
vt 0.3165 0.6684 0.0000
vt 0.3165 0.5888 0.0000
vt 0.5446 0.5888 0.0000
vt 0.0020 0.6684 0.0000
vt 0.0020 0.5887 0.0000
vt 0.6105 0.3316 0.0000
vt 0.8385 0.3316 0.0000
vt 0.8385 0.4112 0.0000
vt 0.6105 0.4112 0.0000
vt 0.8591 0.6684 0.0000
vt 0.8591 0.5888 0.0000
vt 0.6105 0.0020 0.0000
vt 0.8385 0.0020 0.0000
vt 0.7770 0.0636 0.0000
vt 0.6721 0.0636 0.0000
vt 0.8385 0.3165 0.0000
vt 0.7770 0.2550 0.0000
vt 0.6105 0.3165 0.0000
vt 0.6721 0.2550 0.0000
vt 0.1482 0.2200 0.0000
vt 0.2103 0.1339 0.0000
vt 0.2764 0.1865 0.0000
vt 0.2157 0.2667 0.0000
vt 0.3526 0.0020 0.0000
vt 0.4022 0.0438 0.0000
vt 0.0020 0.4753 0.0000
vt 0.0639 0.3918 0.0000
vt 0.1156 0.4293 0.0000
vt 0.0492 0.5106 0.0000
vt 0.3481 0.2406 0.0000
vt 0.2869 0.3218 0.0000
vt 0.4447 0.0745 0.0000
vt 0.1565 0.4624 0.0000
vt 0.0809 0.5365 0.0000
vt 0.3572 0.3780 0.0000
vt 0.2009 0.5035 0.0000
vt 0.1183 0.5737 0.0000
# 46 texture coords

g Accelerator
usemtl Standardmaterial
s 2
f 1/1/1 2/2/1 3/3/1 4/4/1 
s 4
f 5/5/2 6/6/2 7/7/2 8/8/2 
s 8
f 1/9/3 4/10/3 9/11/3 10/12/3 
s 16
f 4/10/4 3/13/4 11/14/4 9/11/4 
s 32
f 3/15/5 2/16/5 12/17/5 11/18/5 
s 64
f 2/19/6 1/9/6 10/12/6 12/20/6 
s off
f 10/21/7 9/22/7 13/23/7 14/24/7 
f 9/22/7 11/25/7 15/26/7 13/23/7 
f 11/25/7 12/27/7 16/28/7 15/26/7 
f 12/27/7 10/21/7 14/24/7 16/28/7 
f 14/29/8 13/30/8 17/31/8 18/32/8 
f 13/30/4 15/33/4 19/34/4 17/31/4 
f 15/35/9 16/36/9 20/37/9 19/38/9 
f 16/36/6 14/29/6 18/32/6 20/37/6 
f 18/32/10 17/31/10 21/39/10 22/40/10 
f 17/31/4 19/34/4 23/41/4 21/39/4 
f 19/38/11 20/37/11 24/42/11 23/43/11 
f 20/37/6 18/32/6 22/40/6 24/42/6 
f 22/40/12 21/39/12 6/6/12 5/44/12 
f 21/39/4 23/41/4 7/7/4 6/6/4 
f 23/43/13 24/42/13 8/45/13 7/46/13 
f 24/42/6 22/40/6 5/44/6 8/45/6 
# 22 polygons

