# 3ds Max Wavefront OBJ Exporter v0.97b - (c)2007 guruware
# File Created: 19.01.2017 23:22:30

mtllib PowerTraverse.mtl

#
# object Cylinder020
#

v  5.8956 13.7407 -6.3172
v  5.8375 13.7407 -6.5717
v  5.8375 14.1534 -6.5717
v  5.8956 14.1534 -6.3172
v  5.6748 13.7407 -6.7758
v  5.6748 14.1534 -6.7758
v  5.4396 13.7407 -6.8891
v  5.4396 14.1534 -6.8891
v  5.1785 13.7407 -6.8891
v  5.1785 14.1534 -6.8891
v  4.9433 13.7407 -6.7758
v  4.9433 14.1534 -6.7758
v  4.7806 13.7407 -6.5717
v  4.7806 14.1534 -6.5717
v  4.7225 13.7407 -6.3172
v  4.7225 14.1534 -6.3172
v  4.7806 13.7407 -6.0627
v  4.7806 14.1534 -6.0627
v  4.9433 13.7407 -5.8587
v  4.9433 14.1534 -5.8587
v  5.1785 13.7407 -5.7454
v  5.1785 14.1534 -5.7454
v  5.4396 13.7407 -5.7454
v  5.4396 14.1534 -5.7454
v  5.6748 13.7407 -5.8587
v  5.6748 14.1534 -5.8587
v  5.8375 13.7407 -6.0627
v  5.8375 14.1534 -6.0627
v  5.6266 14.2702 -6.4702
v  5.6615 14.2702 -6.3172
v  5.5288 14.2702 -6.5928
v  5.3875 14.2702 -6.6609
v  5.2306 14.2702 -6.6609
v  5.0893 14.2702 -6.5928
v  4.9915 14.2702 -6.4702
v  4.9566 14.2702 -6.3172
v  4.9915 14.2702 -6.1643
v  5.0893 14.2702 -6.0417
v  5.2306 14.2702 -5.9736
v  5.3875 14.2702 -5.9736
v  5.5288 14.2702 -6.0417
v  5.6266 14.2702 -6.1643
v  5.6266 14.7017 -6.4702
v  5.6615 14.7017 -6.3172
v  5.5288 14.7017 -6.5928
v  5.3875 14.7017 -6.6609
v  5.2306 14.7017 -6.6609
v  5.0893 14.7017 -6.5928
v  4.9915 14.7017 -6.4702
v  5.0893 14.7017 -6.0417
v  4.9915 14.7017 -6.1643
v  5.2306 14.7017 -5.9736
v  5.3875 14.7017 -5.9736
v  5.5288 14.7017 -6.0417
v  5.6266 14.7017 -6.1643
v  4.2661 14.4143 -6.2081
v  4.9815 14.4143 -6.2081
v  4.9815 14.5511 -6.2081
v  4.2661 14.5511 -6.2081
v  4.9566 14.4143 -6.3172
v  4.2661 14.4143 -6.3998
v  4.9754 14.4143 -6.3998
v  4.2661 14.5511 -6.3998
v  4.9754 14.5511 -6.3998
v  4.3900 14.5511 -6.3832
v  4.3900 14.7012 -6.3832
v  4.4318 14.7012 -6.3528
v  4.4318 14.5511 -6.3528
v  4.4477 14.7012 -6.3038
v  4.4477 14.5511 -6.3038
v  4.4318 14.7012 -6.2547
v  4.4318 14.5511 -6.2547
v  4.3900 14.7012 -6.2244
v  4.3900 14.5511 -6.2244
v  4.3384 14.7012 -6.2244
v  4.3384 14.5511 -6.2244
v  4.2967 14.7012 -6.2547
v  4.2967 14.5511 -6.2547
v  4.2807 14.7012 -6.3038
v  4.2807 14.5511 -6.3038
v  4.2967 14.7012 -6.3528
v  4.2967 14.5511 -6.3528
v  4.3384 14.7012 -6.3832
v  4.3384 14.5511 -6.3832
v  4.4051 14.7012 -6.4296
v  4.3234 14.7012 -6.4296
v  4.3234 15.2701 -6.4296
v  4.4051 15.2701 -6.4296
v  4.4713 14.7012 -6.3815
v  4.4713 15.2701 -6.3815
v  4.4965 14.7012 -6.3038
v  4.4965 15.2701 -6.3038
v  4.4713 15.2701 -6.2260
v  4.4713 14.7012 -6.2260
v  4.4051 14.7012 -6.1779
v  4.4051 15.2701 -6.1779
v  4.3234 14.7012 -6.1779
v  4.3234 15.2701 -6.1779
v  4.2572 14.7012 -6.2260
v  4.2572 15.2701 -6.2260
v  4.2319 14.7012 -6.3038
v  4.2319 15.2701 -6.3038
v  4.2572 14.7012 -6.3815
v  4.2572 15.2701 -6.3815
v  4.2769 15.3258 -6.3038
v  4.2936 15.3258 -6.3551
v  4.3372 15.3258 -6.3869
v  4.2936 15.3258 -6.2524
v  4.3372 15.3258 -6.2207
v  4.3912 15.3258 -6.2207
v  4.4349 15.3258 -6.2524
v  4.4516 15.3258 -6.3038
v  4.4349 15.3258 -6.3551
v  4.3912 15.3258 -6.3869
v  4.9566 14.7017 -6.3172
v  4.9566 14.5511 -6.3172
# 116 vertices

vn 1.0000 0.0000 -0.0000
vn 0.9010 0.0000 -0.4339
vn 0.6235 0.0000 -0.7818
vn 0.2225 0.0000 -0.9749
vn -0.2225 0.0000 -0.9749
vn -0.6235 0.0000 -0.7818
vn -0.9010 0.0000 -0.4339
vn -1.0000 0.0000 -0.0000
vn -0.9010 0.0000 0.4339
vn -0.6235 0.0000 0.7818
vn -0.2225 0.0000 0.9749
vn 0.2225 0.0000 0.9749
vn 0.6235 0.0000 0.7818
vn 0.9010 0.0000 0.4339
vn 0.4444 0.8901 -0.1014
vn 0.3564 0.8901 -0.2842
vn 0.1978 0.8901 -0.4107
vn 0.0000 0.8901 -0.4558
vn -0.1978 0.8901 -0.4107
vn -0.3564 0.8901 -0.2842
vn -0.4444 0.8901 -0.1014
vn -0.4444 0.8901 0.1014
vn -0.3564 0.8901 0.2842
vn -0.1978 0.8901 0.4107
vn 0.0000 0.8901 0.4558
vn 0.1978 0.8901 0.4107
vn 0.3564 0.8901 0.2842
vn 0.4444 0.8901 0.1014
vn 0.9749 0.0000 -0.2225
vn 0.7818 0.0000 -0.6235
vn 0.4339 0.0000 -0.9010
vn 0.0000 0.0000 -1.0000
vn -0.4339 0.0000 -0.9010
vn -0.7818 0.0000 -0.6235
vn -0.7818 0.0000 0.6235
vn -0.4339 0.0000 0.9010
vn 0.0000 0.0000 1.0000
vn 0.4339 0.0000 0.9010
vn 0.7818 0.0000 0.6235
vn 0.9749 0.0000 0.2225
vn -0.0000 0.0000 1.0000
vn 0.0000 -1.0000 -0.0000
vn 0.5878 0.0000 -0.8090
vn 0.9511 0.0000 -0.3090
vn 0.9511 0.0000 0.3090
vn 0.5878 0.0000 0.8090
vn -0.5878 0.0000 0.8090
vn -0.9511 0.0000 0.3090
vn -0.9511 0.0000 -0.3090
vn -0.5878 0.0000 -0.8090
vn 0.3090 0.0000 -0.9511
vn -0.3090 0.0000 -0.9511
vn 0.8090 0.0000 -0.5878
vn 1.0000 0.0000 0.0000
vn 0.8090 0.0000 0.5878
vn 0.3090 0.0000 0.9511
vn -0.3090 0.0000 0.9511
vn -0.8090 0.0000 0.5878
vn -1.0000 0.0000 0.0000
vn -0.8090 0.0000 -0.5878
vn -0.7542 0.6093 -0.2450
vn -0.4661 0.6093 -0.6415
vn -0.7542 0.6093 0.2450
vn -0.4661 0.6093 0.6415
vn 0.0000 0.6093 0.7930
vn 0.4661 0.6093 0.6415
vn 0.7542 0.6093 0.2450
vn 0.7542 0.6093 -0.2450
vn 0.4661 0.6093 -0.6415
vn 0.0000 0.6093 -0.7930
vn 0.0000 1.0000 -0.0000
vn -0.9749 0.0000 0.2225
vn -0.9749 -0.0000 0.2225
vn -0.9749 0.0000 -0.2225
vn -0.9749 -0.0000 -0.2225
# 75 vertex normals

vt 0.0020 0.4640 0.0000
vt 0.0566 0.4311 0.0000
vt 0.1087 0.5174 0.0000
vt 0.0541 0.5504 0.0000
vt 0.1113 0.3981 0.0000
vt 0.1633 0.4845 0.0000
vt 0.1659 0.3652 0.0000
vt 0.2180 0.4516 0.0000
vt 0.2205 0.3323 0.0000
vt 0.2726 0.4186 0.0000
vt 0.2751 0.2993 0.0000
vt 0.3272 0.3856 0.0000
vt 0.3297 0.2663 0.0000
vt 0.3818 0.3526 0.0000
vt 0.3842 0.2333 0.0000
vt 0.4364 0.3196 0.0000
vt 0.4388 0.2003 0.0000
vt 0.4910 0.2866 0.0000
vt 0.4934 0.1673 0.0000
vt 0.5456 0.2536 0.0000
vt 0.5479 0.1342 0.0000
vt 0.6002 0.2205 0.0000
vt 0.6025 0.1012 0.0000
vt 0.6547 0.1874 0.0000
vt 0.6570 0.0681 0.0000
vt 0.7093 0.1544 0.0000
vt 0.7116 0.0351 0.0000
vt 0.7638 0.1213 0.0000
vt 0.7661 0.0020 0.0000
vt 0.8184 0.0882 0.0000
vt 0.1302 0.5777 0.0000
vt 0.0973 0.5975 0.0000
vt 0.1848 0.5447 0.0000
vt 0.1520 0.5645 0.0000
vt 0.2394 0.5118 0.0000
vt 0.2066 0.5316 0.0000
vt 0.2941 0.4788 0.0000
vt 0.2612 0.4986 0.0000
vt 0.3487 0.4458 0.0000
vt 0.3159 0.4657 0.0000
vt 0.4033 0.4128 0.0000
vt 0.3705 0.4327 0.0000
vt 0.4579 0.3798 0.0000
vt 0.4251 0.3997 0.0000
vt 0.5126 0.3468 0.0000
vt 0.4798 0.3666 0.0000
vt 0.5672 0.3138 0.0000
vt 0.5344 0.3336 0.0000
vt 0.6217 0.2807 0.0000
vt 0.5889 0.3006 0.0000
vt 0.6763 0.2476 0.0000
vt 0.6435 0.2675 0.0000
vt 0.7309 0.2146 0.0000
vt 0.6981 0.2344 0.0000
vt 0.7854 0.1815 0.0000
vt 0.7526 0.2014 0.0000
vt 0.8400 0.1484 0.0000
vt 0.8072 0.1683 0.0000
vt 0.8576 0.0020 0.0000
vt 0.8960 0.0020 0.0000
vt 0.8960 0.1074 0.0000
vt 0.8576 0.1074 0.0000
vt 0.9343 0.0020 0.0000
vt 0.9343 0.1074 0.0000
vt 0.9726 0.0020 0.0000
vt 0.9726 0.1074 0.0000
vt 0.3063 0.8519 0.0000
vt 0.3447 0.8519 0.0000
vt 0.3447 0.9573 0.0000
vt 0.3063 0.9573 0.0000
vt 0.3830 0.8519 0.0000
vt 0.3830 0.9573 0.0000
vt 0.4213 0.8519 0.0000
vt 0.4213 0.9573 0.0000
vt 0.6030 0.6447 0.0000
vt 0.6411 0.6397 0.0000
vt 0.6546 0.7443 0.0000
vt 0.6166 0.7492 0.0000
vt 0.6791 0.6348 0.0000
vt 0.6926 0.7394 0.0000
vt 0.7171 0.6299 0.0000
vt 0.7306 0.7344 0.0000
vt 0.7551 0.6250 0.0000
vt 0.7686 0.7295 0.0000
vt 0.7931 0.6200 0.0000
vt 0.8067 0.7246 0.0000
vt 0.8311 0.6151 0.0000
vt 0.8447 0.7197 0.0000
vt 0.7550 0.9008 0.0000
vt 0.9298 0.9008 0.0000
vt 0.9298 0.9342 0.0000
vt 0.7550 0.9342 0.0000
vt 0.9237 0.8564 0.0000
vt 0.9298 0.8831 0.0000
vt 0.7550 0.8831 0.0000
vt 0.7550 0.8363 0.0000
vt 0.9283 0.8363 0.0000
vt 0.4858 0.8519 0.0000
vt 0.4858 0.8853 0.0000
vt 0.4390 0.8853 0.0000
vt 0.4390 0.8519 0.0000
vt 0.9283 0.9853 0.0000
vt 0.7550 0.9853 0.0000
vt 0.7550 0.9519 0.0000
vt 0.9283 0.9519 0.0000
vt 0.0976 0.9475 0.0000
vt 0.0829 0.9811 0.0000
vt 0.0714 0.9761 0.0000
vt 0.0860 0.9424 0.0000
vt 0.0598 0.9711 0.0000
vt 0.0745 0.9374 0.0000
vt 0.0483 0.9660 0.0000
vt 0.0629 0.9324 0.0000
vt 0.0367 0.9610 0.0000
vt 0.0513 0.9274 0.0000
vt 0.0251 0.9560 0.0000
vt 0.0398 0.9223 0.0000
vt 0.0136 0.9510 0.0000
vt 0.0282 0.9173 0.0000
vt 0.0020 0.9459 0.0000
vt 0.0166 0.9123 0.0000
vt 0.1323 0.9626 0.0000
vt 0.1176 0.9962 0.0000
vt 0.1061 0.9912 0.0000
vt 0.1207 0.9575 0.0000
vt 0.0945 0.9862 0.0000
vt 0.1091 0.9525 0.0000
vt 0.5474 0.7583 0.0000
vt 0.5289 0.7659 0.0000
vt 0.4761 0.6373 0.0000
vt 0.4946 0.6297 0.0000
vt 0.3811 0.8266 0.0000
vt 0.3626 0.8342 0.0000
vt 0.3097 0.7056 0.0000
vt 0.3282 0.6980 0.0000
vt 0.3996 0.8190 0.0000
vt 0.3467 0.6904 0.0000
vt 0.3652 0.6828 0.0000
vt 0.4180 0.8114 0.0000
vt 0.4365 0.8038 0.0000
vt 0.3837 0.6752 0.0000
vt 0.4550 0.7962 0.0000
vt 0.4022 0.6676 0.0000
vt 0.4734 0.7887 0.0000
vt 0.4206 0.6600 0.0000
vt 0.4919 0.7811 0.0000
vt 0.4391 0.6525 0.0000
vt 0.5104 0.7735 0.0000
vt 0.4576 0.6449 0.0000
vt 0.4358 0.6353 0.0000
vt 0.4480 0.6303 0.0000
vt 0.4543 0.6277 0.0000
vt 0.4665 0.6227 0.0000
vt 0.4173 0.6429 0.0000
vt 0.4295 0.6379 0.0000
vt 0.3988 0.6505 0.0000
vt 0.4110 0.6455 0.0000
vt 0.3803 0.6581 0.0000
vt 0.3925 0.6531 0.0000
vt 0.3740 0.6607 0.0000
vt 0.3618 0.6657 0.0000
vt 0.3555 0.6683 0.0000
vt 0.3433 0.6733 0.0000
vt 0.3370 0.6759 0.0000
vt 0.3248 0.6809 0.0000
vt 0.3063 0.6885 0.0000
vt 0.3185 0.6835 0.0000
vt 0.4728 0.6201 0.0000
vt 0.4850 0.6151 0.0000
vt 0.0020 0.7549 0.0000
vt 0.0162 0.6927 0.0000
vt 0.0560 0.6428 0.0000
vt 0.0162 0.8171 0.0000
vt 0.0560 0.8669 0.0000
vt 0.1134 0.6151 0.0000
vt 0.1134 0.8946 0.0000
vt 0.1772 0.8946 0.0000
vt 0.2347 0.8669 0.0000
vt 0.2745 0.8171 0.0000
vt 0.1772 0.6151 0.0000
vt 0.2347 0.6428 0.0000
vt 0.2745 0.6927 0.0000
vt 0.2887 0.7549 0.0000
vt 0.5650 0.8558 0.0000
vt 0.5736 0.8184 0.0000
vt 0.5975 0.7884 0.0000
vt 0.5736 0.8931 0.0000
vt 0.5975 0.9231 0.0000
vt 0.6320 0.7718 0.0000
vt 0.6703 0.7718 0.0000
vt 0.7049 0.7884 0.0000
vt 0.7288 0.8184 0.0000
vt 0.6320 0.9397 0.0000
vt 0.6703 0.9397 0.0000
vt 0.7049 0.9231 0.0000
vt 0.7288 0.8931 0.0000
vt 0.7373 0.8558 0.0000
vt 0.5786 0.7541 0.0000
vt 0.5738 0.7176 0.0000
vt 0.6010 0.7141 0.0000
vt 0.5967 0.6810 0.0000
vt 0.5650 0.6496 0.0000
vt 0.5696 0.6845 0.0000
vt 0.8964 0.6831 -0.2908
vt 0.9141 0.6937 0.2908
vt 0.8952 0.7253 -0.2908
vt 0.8623 0.7055 0.2908
vt 0.9136 0.6544 -0.2908
vt 0.9166 0.6151 -0.2908
vt 0.9495 0.6349 -0.2908
vt 0.9313 0.6650 -0.2908
vt 0.9237 0.7985 0.0000
vt 0.7550 0.8186 0.0000
vt 0.7852 0.8146 0.0000
vt 0.7954 0.8072 0.0000
vt 0.7993 0.7952 0.0000
vt 0.7954 0.7832 0.0000
vt 0.9298 0.7718 0.0000
vt 0.7852 0.7758 0.0000
vt 0.7726 0.7758 0.0000
vt 0.7550 0.7718 0.0000
vt 0.7624 0.7832 0.0000
vt 0.7585 0.7952 0.0000
vt 0.9283 0.8186 0.0000
vt 0.7726 0.8146 0.0000
vt 0.7624 0.8072 0.0000
vt 0.5650 0.9777 0.0000
vt 0.5691 0.9651 0.0000
vt 0.5798 0.9574 0.0000
vt 0.5691 0.9902 0.0000
vt 0.5798 0.9980 0.0000
vt 0.5930 0.9980 0.0000
vt 0.6037 0.9902 0.0000
vt 0.5930 0.9574 0.0000
vt 0.6037 0.9651 0.0000
vt 0.6077 0.9777 0.0000
vt 0.8576 0.1558 0.0000
vt 0.8638 0.1368 0.0000
vt 0.8696 0.1558 0.0000
vt 0.8735 0.1678 0.0000
vt 0.8638 0.1748 0.0000
vt 0.8837 0.1752 0.0000
vt 0.8800 0.1866 0.0000
vt 0.8963 0.1752 0.0000
vt 0.9000 0.1866 0.0000
vt 0.9065 0.1678 0.0000
vt 0.9161 0.1748 0.0000
vt 0.9104 0.1558 0.0000
vt 0.9223 0.1558 0.0000
vt 0.9065 0.1438 0.0000
vt 0.9161 0.1368 0.0000
vt 0.8963 0.1364 0.0000
vt 0.8735 0.1438 0.0000
vt 0.8837 0.1364 0.0000
vt 0.8800 0.1251 0.0000
vt 0.9000 0.1251 0.0000
# 256 texture coords

g Cylinder020
usemtl Standardmaterial
s 8
f 1/1/1 2/2/2 3/3/2 4/4/1 
f 2/2/2 5/5/3 6/6/3 3/3/2 
f 5/5/3 7/7/4 8/8/4 6/6/3 
f 7/7/4 9/9/5 10/10/5 8/8/4 
f 9/9/5 11/11/6 12/12/6 10/10/5 
f 11/11/6 13/13/7 14/14/7 12/12/6 
f 15/15/8 16/16/8 14/14/7 13/13/7 
f 17/17/9 18/18/9 16/16/8 15/15/8 
f 19/19/10 20/20/10 18/18/9 17/17/9 
f 21/21/11 22/22/11 20/20/10 19/19/10 
f 21/21/11 23/23/12 24/24/12 22/22/11 
f 25/25/13 26/26/13 24/24/12 23/23/12 
f 25/25/13 27/27/14 28/28/14 26/26/13 
f 27/27/14 1/29/1 4/30/1 28/28/14 
s off
f 3/3/15 29/31/15 30/32/15 4/4/15 
f 3/3/16 6/6/16 31/33/16 29/34/16 
f 6/6/17 8/8/17 32/35/17 31/36/17 
f 8/8/18 10/10/18 33/37/18 32/38/18 
f 12/12/19 34/39/19 33/40/19 10/10/19 
f 12/12/20 14/14/20 35/41/20 34/42/20 
f 16/16/21 36/43/21 35/44/21 14/14/21 
f 16/16/22 18/18/22 37/45/22 36/46/22 
f 20/20/23 38/47/23 37/48/23 18/18/23 
f 20/20/24 22/22/24 39/49/24 38/50/24 
f 22/22/25 24/24/25 40/51/25 39/52/25 
f 26/26/26 41/53/26 40/54/26 24/24/26 
f 28/28/27 42/55/27 41/56/27 26/26/27 
f 28/28/28 4/30/28 30/57/28 42/58/28 
f 30/59/29 29/60/29 43/61/29 44/62/29 
f 31/63/30 45/64/30 43/61/30 29/60/30 
f 31/63/31 32/65/31 46/66/31 45/64/31 
f 32/67/32 33/68/32 47/69/32 46/70/32 
f 33/68/33 34/71/33 48/72/33 47/69/33 
f 34/71/34 35/73/34 49/74/34 48/72/34 
f 37/75/35 38/76/35 50/77/35 51/78/35 
f 38/76/36 39/79/36 52/80/36 50/77/36 
f 39/79/37 40/81/37 53/82/37 52/80/37 
f 40/81/38 41/83/38 54/84/38 53/82/38 
f 41/83/39 42/85/39 55/86/39 54/84/39 
f 42/85/40 30/87/40 44/88/40 55/86/40 
s 4
f 56/89/41 57/90/41 58/91/41 59/92/41 
s 1
f 60/93/42 57/94/42 56/95/42 61/96/42 
f 60/93/42 61/96/42 62/97/42 
s 2
f 56/98/8 59/99/8 63/100/8 61/101/8 
s 4
f 63/102/32 64/103/32 62/104/32 61/105/32 
s off
f 65/106/43 66/107/43 67/108/43 68/109/43 
f 67/108/44 69/110/44 70/111/44 68/109/44 
f 69/110/45 71/112/45 72/113/45 70/111/45 
f 72/113/46 71/112/46 73/114/46 74/115/46 
f 74/115/37 73/114/37 75/116/37 76/117/37 
f 76/117/47 75/116/47 77/118/47 78/119/47 
f 78/119/48 77/118/48 79/120/48 80/121/48 
f 80/122/49 79/123/49 81/124/49 82/125/49 
f 81/124/50 83/126/50 84/127/50 82/125/50 
f 84/127/32 83/126/32 66/107/32 65/106/32 
s 1
f 85/128/51 86/129/52 87/130/52 88/131/51 
f 89/132/53 85/133/51 88/134/51 90/135/53 
f 91/136/54 89/132/53 90/135/53 92/137/54 
f 91/136/54 92/137/54 93/138/55 94/139/55 
f 95/140/56 94/139/55 93/138/55 96/141/56 
f 97/142/57 95/140/56 96/141/56 98/143/57 
f 99/144/58 97/142/57 98/143/57 100/145/58 
f 101/146/8 99/144/58 100/145/58 102/147/59 
f 103/148/60 101/146/8 102/147/59 104/149/60 
s off
f 102/147/61 105/150/61 106/151/61 104/149/61 
f 104/149/62 106/152/62 107/153/62 87/130/62 
f 108/154/63 105/155/63 102/147/63 100/145/63 
f 109/156/64 108/157/64 100/145/64 98/143/64 
f 110/158/65 109/159/65 98/143/65 96/141/65 
f 110/160/66 96/141/66 93/138/66 111/161/66 
f 111/162/67 93/138/67 92/137/67 112/163/67 
f 112/164/68 92/137/68 90/135/68 113/165/68 
f 114/166/69 113/167/69 90/135/69 88/134/69 
f 107/168/70 114/169/70 88/131/70 87/130/70 
s 1
f 86/129/52 103/148/60 104/149/60 87/130/52 
f 15/170/42 13/171/42 11/172/42 17/173/42 
f 19/174/42 17/173/42 11/172/42 9/175/42 
f 21/176/42 19/174/42 9/175/42 23/177/42 
f 25/178/42 23/177/42 9/175/42 27/179/42 
f 27/179/42 9/175/42 7/180/42 5/181/42 
f 27/179/42 5/181/42 2/182/42 1/183/42 
f 115/184/71 51/185/71 50/186/71 49/187/71 
f 48/188/71 49/187/71 50/186/71 52/189/71 
f 48/188/71 52/189/71 53/190/71 54/191/71 
f 48/188/71 54/191/71 55/192/71 47/193/71 
f 46/194/71 47/193/71 55/192/71 45/195/71 
f 43/196/71 45/195/71 55/192/71 44/197/71 
s off
f 115/198/72 116/199/72 58/200/72 51/78/72 
f 51/78/72 58/200/72 57/201/72 37/75/72 
f 36/202/73 37/75/73 57/201/73 60/203/73 
f 64/204/74 116/205/74 115/206/74 49/207/74 
f 62/208/74 64/204/74 49/207/74 35/209/74 
f 62/208/75 35/209/75 36/210/75 60/211/75 
s 1
f 116/212/71 63/213/71 65/214/71 68/215/71 
f 116/212/71 68/215/71 70/216/71 72/217/71 
f 58/218/71 116/212/71 72/217/71 74/219/71 
f 58/218/71 74/219/71 76/220/71 59/221/71 
f 59/221/71 76/220/71 78/222/71 80/223/71 
f 116/212/71 64/224/71 63/213/71 
f 84/225/71 65/214/71 63/213/71 82/226/71 
f 80/223/71 82/226/71 63/213/71 59/221/71 
f 105/227/71 108/228/71 109/229/71 106/230/71 
f 107/231/71 106/230/71 109/229/71 114/232/71 
f 113/233/71 114/232/71 109/229/71 110/234/71 
f 113/233/71 110/234/71 111/235/71 112/236/71 
s off
f 101/237/42 103/238/42 79/239/42 77/240/42 
f 99/241/42 101/237/42 77/240/42 75/242/42 
f 97/243/42 99/241/42 75/242/42 73/244/42 
f 95/245/42 97/243/42 73/244/42 71/246/42 
f 94/247/42 95/245/42 71/246/42 69/248/42 
f 91/249/42 94/247/42 69/248/42 67/250/42 
f 89/251/42 91/249/42 67/250/42 66/252/42 
f 81/253/42 79/239/42 103/238/42 83/254/42 
f 83/254/42 103/238/42 86/255/42 66/252/42 
f 66/252/42 86/255/42 85/256/42 89/251/42 
# 113 polygons - 2 triangles

