# 3ds Max Wavefront OBJ Exporter v0.97b - (c)2007 guruware
# File Created: 10.01.2017 08:24:06

mtllib TurretCupolaVisionBlocks.mtl

#
# object Box006
#

v  -9.0175 16.0656 -2.9223
v  -9.0175 16.0656 -4.9657
v  -8.4388 16.0656 -4.9657
v  -8.4388 16.0656 -2.9223
v  -9.0175 16.6542 -2.9223
v  -8.3617 16.6542 -2.9223
v  -8.3617 16.6542 -4.9657
v  -9.0175 16.6542 -4.9657
v  -8.5076 16.2240 -3.0704
v  -8.5076 16.2240 -4.8176
v  -8.4690 16.5189 -4.8176
v  -8.4690 16.5189 -3.0704
v  -8.4196 16.2125 -4.8176
v  -8.4196 16.2125 -3.0704
v  -8.3810 16.5073 -4.8176
v  -8.3810 16.5073 -3.0704
# 16 vertices

vn 0.0000 -1.0000 -0.0000
vn 0.0000 1.0000 -0.0000
vn 0.0000 0.0000 1.0000
vn 0.9915 -0.1299 -0.0000
vn 0.0000 0.0000 -1.0000
vn -1.0000 0.0000 -0.0000
vn 0.9915 -0.1299 0.0000
vn 0.1299 0.9915 -0.0000
vn -0.1299 -0.9915 -0.0000
# 9 vertex normals

vt 0.9980 0.0020 0.0000
vt 0.9980 0.4706 0.0000
vt 0.8653 0.4706 0.0000
vt 0.8653 0.0020 0.0000
vt 0.6972 0.0020 0.0000
vt 0.8476 0.0020 0.0000
vt 0.8476 0.4706 0.0000
vt 0.6972 0.4706 0.0000
vt 0.6972 0.4884 0.0000
vt 0.8299 0.4884 0.0000
vt 0.8476 0.6233 0.0000
vt 0.6972 0.6233 0.0000
vt 0.4884 0.6972 0.0000
vt 0.8890 0.6972 0.0000
vt 0.8890 0.7654 0.0000
vt 0.4884 0.7654 0.0000
vt 0.5060 0.8511 0.0000
vt 0.6387 0.8511 0.0000
vt 0.6387 0.9860 0.0000
vt 0.4884 0.9860 0.0000
vt 0.0020 0.8511 0.0000
vt 0.4706 0.8511 0.0000
vt 0.4706 0.9860 0.0000
vt 0.0020 0.9860 0.0000
vt 0.0020 0.6972 0.0000
vt 0.4706 0.6972 0.0000
vt 0.4366 0.7312 0.0000
vt 0.0360 0.7312 0.0000
vt 0.4706 0.8333 0.0000
vt 0.4366 0.7993 0.0000
vt 0.0020 0.8333 0.0000
vt 0.0360 0.7993 0.0000
vt 0.6795 0.0164 0.0000
vt 0.3961 0.2997 0.0000
vt 0.3817 0.2853 0.0000
vt 0.6651 0.0020 0.0000
vt 0.3479 0.3479 0.0000
vt 0.3335 0.3335 0.0000
vt 0.0646 0.6312 0.0000
vt 0.0502 0.6168 0.0000
vt 0.0164 0.6794 0.0000
vt 0.0020 0.6651 0.0000
# 42 texture coords

g Box006
usemtl Standardmaterial
s 2
f 1/1/1 2/2/1 3/3/1 4/4/1 
s 4
f 5/5/2 6/6/2 7/7/2 8/8/2 
s 8
f 1/9/3 4/10/3 6/11/3 5/12/3 
s 16
f 9/13/4 10/14/4 11/15/4 12/16/4 
s 32
f 3/17/5 2/18/5 8/19/5 7/20/5 
s 64
f 2/21/6 1/22/6 5/23/6 8/24/6 
s off
f 4/25/4 3/26/4 13/27/4 14/28/4 
f 3/26/7 7/29/7 15/30/7 13/27/7 
f 7/29/4 6/31/4 16/32/4 15/30/4 
f 6/31/4 4/25/4 14/28/4 16/32/4 
f 14/33/8 13/34/8 10/35/8 9/36/8 
f 13/34/3 15/37/3 11/38/3 10/35/3 
f 15/37/9 16/39/9 12/40/9 11/38/9 
f 16/39/5 14/41/5 9/42/5 12/40/5 
# 14 polygons

#
# object Box007
#

v  -6.6267 16.0656 -0.8690
v  -8.3964 16.0656 -1.8908
v  -8.1071 16.0656 -2.3919
v  -6.3374 16.0656 -1.3701
v  -6.6267 16.6542 -0.8690
v  -6.2988 16.6542 -1.4369
v  -8.0685 16.6542 -2.4586
v  -8.3964 16.6542 -1.8908
v  -6.5001 16.2240 -1.3847
v  -8.0132 16.2240 -2.2583
v  -7.9939 16.5189 -2.2917
v  -6.4808 16.5189 -1.4181
v  -7.9692 16.2125 -2.3345
v  -6.4561 16.2125 -1.4609
v  -7.9499 16.5073 -2.3679
v  -6.4368 16.5073 -1.4943
# 16 vertices

vn 0.0000 -1.0000 -0.0000
vn 0.0000 1.0000 -0.0000
vn 0.8660 0.0000 0.5000
vn 0.4958 -0.1299 -0.8587
vn -0.8660 0.0000 -0.5000
vn -0.5000 0.0000 0.8660
vn 0.0649 0.9915 -0.1125
vn -0.0649 -0.9915 0.1125
# 8 vertex normals

vt 0.9980 0.0020 0.0000
vt 0.9980 0.4706 0.0000
vt 0.8653 0.4706 0.0000
vt 0.8653 0.0020 0.0000
vt 0.6972 0.0020 0.0000
vt 0.8476 0.0020 0.0000
vt 0.8476 0.4706 0.0000
vt 0.6972 0.4706 0.0000
vt 0.6972 0.4884 0.0000
vt 0.8299 0.4884 0.0000
vt 0.8476 0.6233 0.0000
vt 0.6972 0.6233 0.0000
vt 0.4884 0.6972 0.0000
vt 0.8890 0.6972 0.0000
vt 0.8890 0.7654 0.0000
vt 0.4884 0.7654 0.0000
vt 0.5060 0.8511 0.0000
vt 0.6387 0.8511 0.0000
vt 0.6387 0.9860 0.0000
vt 0.4884 0.9860 0.0000
vt 0.0020 0.8511 0.0000
vt 0.4706 0.8511 0.0000
vt 0.4706 0.9860 0.0000
vt 0.0020 0.9860 0.0000
vt 0.0020 0.6972 0.0000
vt 0.4706 0.6972 0.0000
vt 0.4366 0.7312 0.0000
vt 0.0360 0.7312 0.0000
vt 0.4706 0.8333 0.0000
vt 0.4366 0.7993 0.0000
vt 0.0020 0.8333 0.0000
vt 0.0360 0.7993 0.0000
vt 0.6795 0.0164 0.0000
vt 0.3961 0.2997 0.0000
vt 0.3817 0.2853 0.0000
vt 0.6651 0.0020 0.0000
vt 0.3479 0.3479 0.0000
vt 0.3335 0.3335 0.0000
vt 0.0646 0.6312 0.0000
vt 0.0502 0.6168 0.0000
vt 0.0164 0.6794 0.0000
vt 0.0020 0.6651 0.0000
# 42 texture coords

g Box007
usemtl Standardmaterial
s 2
f 17/43/10 18/44/10 19/45/10 20/46/10 
s 4
f 21/47/11 22/48/11 23/49/11 24/50/11 
s 8
f 17/51/12 20/52/12 22/53/12 21/54/12 
s 16
f 25/55/13 26/56/13 27/57/13 28/58/13 
s 32
f 19/59/14 18/60/14 24/61/14 23/62/14 
s 64
f 18/63/15 17/64/15 21/65/15 24/66/15 
s off
f 20/67/13 19/68/13 29/69/13 30/70/13 
f 19/68/13 23/71/13 31/72/13 29/69/13 
f 23/71/13 22/73/13 32/74/13 31/72/13 
f 22/73/13 20/67/13 30/70/13 32/74/13 
f 30/75/16 29/76/16 26/77/16 25/78/16 
f 29/76/12 31/79/12 27/80/12 26/77/12 
f 31/79/17 32/81/17 28/82/17 27/80/17 
f 32/81/14 30/83/14 25/84/14 28/82/14 
# 14 polygons

#
# object Box008
#

v  -8.3695 16.0656 -5.9223
v  -6.5998 16.0656 -6.9440
v  -6.3104 16.0656 -6.4429
v  -8.0801 16.0656 -5.4212
v  -8.3695 16.6542 -5.9223
v  -8.0416 16.6542 -5.3544
v  -6.2719 16.6542 -6.3761
v  -6.5998 16.6542 -6.9440
v  -7.9862 16.2240 -5.5548
v  -6.4731 16.2240 -6.4284
v  -6.4538 16.5189 -6.3949
v  -7.9669 16.5189 -5.5213
v  -6.4291 16.2125 -6.3522
v  -7.9422 16.2125 -5.4786
v  -6.4098 16.5073 -6.3187
v  -7.9229 16.5073 -5.4451
# 16 vertices

vn 0.0000 -1.0000 -0.0000
vn 0.0000 1.0000 -0.0000
vn -0.8660 0.0000 0.5000
vn 0.4958 -0.1299 0.8587
vn 0.8660 0.0000 -0.5000
vn -0.5000 0.0000 -0.8660
vn 0.0649 0.9915 0.1125
vn -0.0649 -0.9915 -0.1125
# 8 vertex normals

vt 0.9980 0.0020 0.0000
vt 0.9980 0.4706 0.0000
vt 0.8653 0.4706 0.0000
vt 0.8653 0.0020 0.0000
vt 0.6972 0.0020 0.0000
vt 0.8476 0.0020 0.0000
vt 0.8476 0.4706 0.0000
vt 0.6972 0.4706 0.0000
vt 0.6972 0.4884 0.0000
vt 0.8299 0.4884 0.0000
vt 0.8476 0.6233 0.0000
vt 0.6972 0.6233 0.0000
vt 0.4884 0.6972 0.0000
vt 0.8890 0.6972 0.0000
vt 0.8890 0.7654 0.0000
vt 0.4884 0.7654 0.0000
vt 0.5060 0.8511 0.0000
vt 0.6387 0.8511 0.0000
vt 0.6387 0.9860 0.0000
vt 0.4884 0.9860 0.0000
vt 0.0020 0.8511 0.0000
vt 0.4706 0.8511 0.0000
vt 0.4706 0.9860 0.0000
vt 0.0020 0.9860 0.0000
vt 0.0020 0.6972 0.0000
vt 0.4706 0.6972 0.0000
vt 0.4366 0.7312 0.0000
vt 0.0360 0.7312 0.0000
vt 0.4706 0.8333 0.0000
vt 0.4366 0.7993 0.0000
vt 0.0020 0.8333 0.0000
vt 0.0360 0.7993 0.0000
vt 0.6795 0.0164 0.0000
vt 0.3961 0.2997 0.0000
vt 0.3817 0.2853 0.0000
vt 0.6651 0.0020 0.0000
vt 0.3479 0.3479 0.0000
vt 0.3335 0.3335 0.0000
vt 0.0646 0.6312 0.0000
vt 0.0502 0.6168 0.0000
vt 0.0164 0.6794 0.0000
vt 0.0020 0.6651 0.0000
# 42 texture coords

g Box008
usemtl Standardmaterial
s 2
f 33/85/18 34/86/18 35/87/18 36/88/18 
s 4
f 37/89/19 38/90/19 39/91/19 40/92/19 
s 8
f 33/93/20 36/94/20 38/95/20 37/96/20 
s 16
f 41/97/21 42/98/21 43/99/21 44/100/21 
s 32
f 35/101/22 34/102/22 40/103/22 39/104/22 
s 64
f 34/105/23 33/106/23 37/107/23 40/108/23 
s off
f 36/109/21 35/110/21 45/111/21 46/112/21 
f 35/110/21 39/113/21 47/114/21 45/111/21 
f 39/113/21 38/115/21 48/116/21 47/114/21 
f 38/115/21 36/109/21 46/112/21 48/116/21 
f 46/117/24 45/118/24 42/119/24 41/120/24 
f 45/118/20 47/121/20 43/122/20 42/119/20 
f 47/121/25 48/123/25 44/124/25 43/122/25 
f 48/123/22 46/125/22 41/126/22 44/124/22 
# 14 polygons

