# 3ds Max Wavefront OBJ Exporter v0.97b - (c)2007 guruware
# File Created: 19.01.2017 17:35:39

mtllib TurretInterior.mtl

#
# object TurretInteriorSpace
#

v  -9.2955 13.7595 -2.7356
v  -9.2955 20.7545 -2.7356
v  -6.7153 20.7545 -9.5095
v  -6.7153 13.7595 -9.5095
v  6.8094 13.7595 7.1843
v  6.8094 20.7545 7.1843
v  -6.6990 20.7545 7.1843
v  -6.6990 13.7595 7.1843
v  9.4059 13.7595 -2.7356
v  9.4059 20.7545 -2.7356
v  6.8257 13.7595 -9.5095
v  6.8257 20.7545 -9.5095
v  -6.9922 13.2361 -3.4803
v  -7.3548 13.2361 -1.1905
v  -7.3548 13.7595 -1.1905
v  -6.9922 13.7595 -3.4803
v  -6.9922 13.2361 1.0993
v  -6.9922 13.7595 1.0993
v  -5.9396 13.2361 3.1650
v  -5.9396 13.7595 3.1650
v  -4.3003 13.2361 4.8043
v  -4.3003 13.7595 4.8043
v  -2.2346 13.2361 5.8569
v  -2.2346 13.7595 5.8569
v  0.0552 13.2361 6.2195
v  0.0552 13.7595 6.2195
v  2.3450 13.2361 5.8569
v  2.3450 13.7595 5.8569
v  4.4107 13.2361 4.8043
v  4.4107 13.7595 4.8043
v  6.0501 13.2361 3.1650
v  6.0501 13.7595 3.1650
v  7.1026 13.7595 1.0993
v  7.1026 13.2361 1.0993
v  7.4652 13.7595 -1.1905
v  7.4652 13.2361 -1.1905
v  7.1026 13.7595 -3.4803
v  7.1026 13.2361 -3.4803
v  6.0501 13.2361 -5.5460
v  6.0501 13.7595 -5.5460
v  4.4107 13.2361 -7.1854
v  4.4107 13.7595 -7.1854
v  2.3450 13.2361 -8.2379
v  2.3450 13.7595 -8.2379
v  0.0552 13.2361 -8.6005
v  0.0552 13.7595 -8.6005
v  -2.2346 13.2361 -8.2379
v  -2.2346 13.7595 -8.2379
v  -4.3003 13.2361 -7.1854
v  -4.3003 13.7595 -7.1854
v  -5.9396 13.7595 -5.5460
v  -5.9396 13.2361 -5.5460
v  -7.8482 13.7122 -1.1905
v  -7.8482 13.2361 -1.1905
v  -7.4614 13.2361 -3.6328
v  -7.4614 13.7122 -3.6328
v  -7.4614 13.7122 1.2518
v  -7.4614 13.2361 1.2518
v  -6.3388 13.2361 3.4550
v  -6.3388 13.7122 3.4550
v  -4.5903 13.7122 5.2035
v  -4.5903 13.2361 5.2035
v  -2.3871 13.7122 6.3261
v  -2.3871 13.2361 6.3261
v  0.0552 13.7122 6.7129
v  0.0552 13.2361 6.7129
v  2.4975 13.7122 6.3261
v  2.4975 13.2361 6.3261
v  4.7007 13.7122 5.2035
v  4.7007 13.2361 5.2035
v  6.4492 13.7122 3.4550
v  6.4492 13.2361 3.4550
v  7.5718 13.2361 1.2518
v  7.5718 13.7122 1.2518
v  7.9586 13.2361 -1.1905
v  7.9586 13.7122 -1.1905
v  7.5718 13.7122 -3.6328
v  7.5718 13.2361 -3.6328
v  6.4492 13.7122 -5.8360
v  6.4492 13.2361 -5.8360
v  4.7007 13.7122 -7.5845
v  4.7007 13.2361 -7.5845
v  2.4975 13.7122 -8.7071
v  2.4975 13.2361 -8.7071
v  0.0552 13.7122 -9.0939
v  0.0552 13.2361 -9.0939
v  -2.3871 13.2361 -8.7071
v  -2.3871 13.7122 -8.7071
v  -4.5903 13.7122 -7.5845
v  -4.5903 13.2361 -7.5845
v  -6.3388 13.7122 -5.8360
v  -6.3388 13.2361 -5.8360
v  1.4686 22.0442 4.2267
v  1.2650 22.0442 3.2034
v  1.2650 20.7545 3.2034
v  1.4686 20.7545 4.2267
v  1.4686 22.0442 2.1800
v  1.4686 20.7545 2.1800
v  2.0483 22.0442 1.3124
v  2.0483 20.7545 1.3124
v  2.9158 22.0442 0.7328
v  2.9158 20.7545 0.7328
v  3.9392 22.0442 0.5292
v  3.9392 20.7545 0.5292
v  4.9625 22.0442 0.7328
v  4.9625 20.7545 0.7328
v  5.8301 22.0442 1.3124
v  5.8301 20.7545 1.3124
v  6.4098 22.0442 2.1800
v  6.4098 20.7545 2.1800
v  6.6133 22.0442 3.2034
v  6.6133 20.7545 3.2034
v  6.4098 22.0442 4.2267
v  6.4098 20.7545 4.2267
v  5.8301 22.0442 5.0943
v  5.8301 20.7545 5.0943
v  4.9625 22.0442 5.6739
v  4.9625 20.7545 5.6739
v  3.9392 22.0442 5.8775
v  3.9392 20.7545 5.8775
v  2.9158 22.0442 5.6739
v  2.9158 20.7545 5.6739
v  2.0483 22.0442 5.0943
v  2.0483 20.7545 5.0943
# 124 vertices

vn -0.9985 0.0000 -0.0539
vn -0.9345 0.0000 -0.3560
vn 0.0000 0.0000 1.0000
vn 0.9985 -0.0000 -0.0539
vn 0.9674 -0.0000 0.2532
vn -0.0000 0.0000 -1.0000
vn -0.9674 0.0000 0.2532
vn 0.9345 -0.0000 -0.3560
vn -0.9511 0.0000 -0.3090
vn -1.0000 0.0000 0.0000
vn -0.9511 0.0000 0.3090
vn -0.8090 0.0000 0.5878
vn -0.5878 0.0000 0.8090
vn -0.3090 0.0000 0.9511
vn -0.1564 0.0000 0.9877
vn 0.1564 -0.0000 0.9877
vn 0.1564 0.0000 0.9877
vn 0.4540 0.0000 0.8910
vn 0.5878 0.0000 0.8090
vn 0.8090 0.0000 0.5878
vn 0.9511 0.0000 0.3090
vn 1.0000 0.0000 -0.0000
vn 0.9511 0.0000 -0.3090
vn 0.8090 0.0000 -0.5878
vn 0.5878 0.0000 -0.8090
vn 0.3090 -0.0000 -0.9511
vn 0.3090 0.0000 -0.9511
vn -0.0000 -0.0000 -1.0000
vn -0.3090 0.0000 -0.9511
vn -0.5878 0.0000 -0.8090
vn -0.8090 0.0000 -0.5878
vn 0.9877 -0.0000 0.1564
vn 0.9877 0.0000 -0.1564
vn 0.8910 0.0000 -0.4540
vn 0.7071 0.0000 -0.7071
vn 0.4540 0.0000 -0.8910
vn 0.1564 0.0000 -0.9877
vn -0.1564 0.0000 -0.9877
vn -0.4540 0.0000 -0.8910
vn -0.7071 0.0000 -0.7071
vn -0.8910 0.0000 -0.4540
vn -0.9877 0.0000 -0.1564
vn -0.9877 0.0000 0.1564
vn -0.8910 0.0000 0.4540
vn -0.7071 0.0000 0.7071
vn -0.4540 0.0000 0.8910
vn 0.4540 -0.0000 0.8910
vn 0.7071 -0.0000 0.7071
vn 0.8910 -0.0000 0.4540
vn -0.9239 0.0000 0.3827
vn -0.9239 0.0000 -0.3827
vn -0.3827 0.0000 -0.9239
vn 0.0000 0.0000 -1.0000
vn 0.3827 0.0000 -0.9239
vn 0.9239 0.0000 -0.3827
vn 1.0000 0.0000 0.0000
vn 0.9239 0.0000 0.3827
vn 0.7071 0.0000 0.7071
vn 0.5556 0.0000 0.8315
vn 0.1951 0.0000 0.9808
vn -0.1951 0.0000 0.9808
vn -0.3827 0.0000 0.9239
vn 0.0000 -1.0000 -0.0000
vn 0.0000 1.0000 -0.0000
vn 0.0000 1.0000 0.0000
vn -0.0000 1.0000 0.0000
# 66 vertex normals

vt 0.4302 0.8570 0.0000
vt 0.4337 0.9700 0.0000
vt 0.3166 0.9737 0.0000
vt 0.3131 0.8607 0.0000
vt 0.9980 0.2932 0.0000
vt 0.9980 0.3941 0.0000
vt 0.8031 0.3941 0.0000
vt 0.8031 0.2932 0.0000
vt 0.4830 0.7155 0.0000
vt 0.4787 0.8284 0.0000
vt 0.3131 0.8220 0.0000
vt 0.3174 0.7091 0.0000
vt 0.5694 0.3525 0.0000
vt 0.7555 0.2932 0.0000
vt 0.7862 0.3894 0.0000
vt 0.6000 0.4487 0.0000
vt 0.5958 0.8519 0.0000
vt 0.5993 0.9648 0.0000
vt 0.5957 0.8329 0.0000
vt 0.6001 0.7200 0.0000
vt 0.1900 0.5608 0.0000
vt 0.1587 0.5491 0.0000
vt 0.1613 0.5420 0.0000
vt 0.1926 0.5537 0.0000
vt 0.1273 0.5374 0.0000
vt 0.1300 0.5303 0.0000
vt 0.0960 0.5257 0.0000
vt 0.0986 0.5186 0.0000
vt 0.0647 0.5139 0.0000
vt 0.0673 0.5069 0.0000
vt 0.0333 0.5022 0.0000
vt 0.0360 0.4952 0.0000
vt 0.0020 0.4905 0.0000
vt 0.0046 0.4835 0.0000
vt 0.5977 0.7120 0.0000
vt 0.6003 0.7049 0.0000
vt 0.6317 0.7165 0.0000
vt 0.6291 0.7236 0.0000
vt 0.5663 0.7004 0.0000
vt 0.5689 0.6933 0.0000
vt 0.5349 0.6888 0.0000
vt 0.5375 0.6817 0.0000
vt 0.5062 0.6701 0.0000
vt 0.5036 0.6772 0.0000
vt 0.4748 0.6585 0.0000
vt 0.4722 0.6656 0.0000
vt 0.4434 0.6469 0.0000
vt 0.4408 0.6540 0.0000
vt 0.4094 0.6424 0.0000
vt 0.4121 0.6353 0.0000
vt 0.3781 0.6308 0.0000
vt 0.3807 0.6237 0.0000
vt 0.3467 0.6191 0.0000
vt 0.3494 0.6120 0.0000
vt 0.3154 0.6075 0.0000
vt 0.3180 0.6004 0.0000
vt 0.2840 0.5958 0.0000
vt 0.2867 0.5887 0.0000
vt 0.2527 0.5841 0.0000
vt 0.2553 0.5770 0.0000
vt 0.2240 0.5654 0.0000
vt 0.2213 0.5724 0.0000
vt 0.4163 0.3461 0.0000
vt 0.4119 0.3513 0.0000
vt 0.3846 0.3283 0.0000
vt 0.3890 0.3230 0.0000
vt 0.4435 0.3691 0.0000
vt 0.4391 0.3743 0.0000
vt 0.4663 0.3974 0.0000
vt 0.4708 0.3921 0.0000
vt 0.4980 0.4152 0.0000
vt 0.4936 0.4204 0.0000
vt 0.5252 0.4382 0.0000
vt 0.5208 0.4435 0.0000
vt 0.5525 0.4613 0.0000
vt 0.5480 0.4665 0.0000
vt 0.0338 0.0249 0.0000
vt 0.0294 0.0302 0.0000
vt 0.0020 0.0073 0.0000
vt 0.0064 0.0020 0.0000
vt 0.0611 0.0478 0.0000
vt 0.0567 0.0531 0.0000
vt 0.0885 0.0707 0.0000
vt 0.0841 0.0759 0.0000
vt 0.1114 0.0988 0.0000
vt 0.1159 0.0936 0.0000
vt 0.1388 0.1217 0.0000
vt 0.1432 0.1165 0.0000
vt 0.1706 0.1394 0.0000
vt 0.1662 0.1446 0.0000
vt 0.1979 0.1623 0.0000
vt 0.1935 0.1676 0.0000
vt 0.2252 0.1852 0.0000
vt 0.2208 0.1905 0.0000
vt 0.2526 0.2082 0.0000
vt 0.2482 0.2134 0.0000
vt 0.2799 0.2311 0.0000
vt 0.2755 0.2364 0.0000
vt 0.3028 0.2593 0.0000
vt 0.3072 0.2541 0.0000
vt 0.3345 0.2770 0.0000
vt 0.3301 0.2823 0.0000
vt 0.3618 0.3000 0.0000
vt 0.3573 0.3053 0.0000
vt 0.8510 0.1977 0.0000
vt 0.8510 0.1826 0.0000
vt 0.8696 0.1826 0.0000
vt 0.8696 0.1977 0.0000
vt 0.8510 0.1676 0.0000
vt 0.8696 0.1676 0.0000
vt 0.8510 0.1525 0.0000
vt 0.8696 0.1525 0.0000
vt 0.8510 0.1375 0.0000
vt 0.8696 0.1375 0.0000
vt 0.8510 0.1224 0.0000
vt 0.8696 0.1224 0.0000
vt 0.8510 0.1074 0.0000
vt 0.8696 0.1074 0.0000
vt 0.8510 0.0923 0.0000
vt 0.8696 0.0923 0.0000
vt 0.8510 0.0773 0.0000
vt 0.8696 0.0773 0.0000
vt 0.8510 0.0622 0.0000
vt 0.8696 0.0622 0.0000
vt 0.8510 0.0472 0.0000
vt 0.8696 0.0472 0.0000
vt 0.8510 0.0321 0.0000
vt 0.8696 0.0321 0.0000
vt 0.8510 0.0171 0.0000
vt 0.8696 0.0171 0.0000
vt 0.8510 0.0020 0.0000
vt 0.8696 0.0020 0.0000
vt 0.8510 0.2429 0.0000
vt 0.8510 0.2278 0.0000
vt 0.8696 0.2278 0.0000
vt 0.8696 0.2429 0.0000
vt 0.8510 0.2127 0.0000
vt 0.8696 0.2127 0.0000
vt 0.0086 0.9552 0.0000
vt 0.0086 0.7485 0.0000
vt 0.0242 0.8518 0.0000
vt 0.0304 0.8868 0.0000
vt 0.0484 0.9183 0.0000
vt 0.0764 0.9434 0.0000
vt 0.1117 0.9594 0.0000
vt 0.1245 0.9946 0.0000
vt 0.0304 0.8169 0.0000
vt 0.0484 0.7853 0.0000
vt 0.0764 0.7603 0.0000
vt 0.1117 0.7443 0.0000
vt 0.1245 0.7091 0.0000
vt 0.1509 0.7387 0.0000
vt 0.1901 0.7443 0.0000
vt 0.2254 0.7603 0.0000
vt 0.2941 0.7487 0.0000
vt 0.2534 0.7853 0.0000
vt 0.2714 0.8169 0.0000
vt 0.2776 0.8518 0.0000
vt 0.2941 0.9550 0.0000
vt 0.2714 0.8868 0.0000
vt 0.2534 0.9183 0.0000
vt 0.2254 0.9434 0.0000
vt 0.1901 0.9594 0.0000
vt 0.1509 0.9650 0.0000
vt 0.7626 0.7044 0.0000
vt 0.7296 0.6992 0.0000
vt 0.7274 0.7059 0.0000
vt 0.7626 0.7115 0.0000
vt 0.7957 0.6992 0.0000
vt 0.7979 0.7059 0.0000
vt 0.8255 0.6840 0.0000
vt 0.8297 0.6897 0.0000
vt 0.8491 0.6603 0.0000
vt 0.8549 0.6645 0.0000
vt 0.8643 0.6305 0.0000
vt 0.8711 0.6327 0.0000
vt 0.8695 0.5975 0.0000
vt 0.8767 0.5975 0.0000
vt 0.8643 0.5644 0.0000
vt 0.8711 0.5622 0.0000
vt 0.8491 0.5346 0.0000
vt 0.8549 0.5305 0.0000
vt 0.8255 0.5110 0.0000
vt 0.8297 0.5052 0.0000
vt 0.7957 0.4958 0.0000
vt 0.7979 0.4890 0.0000
vt 0.7626 0.4906 0.0000
vt 0.7626 0.4835 0.0000
vt 0.7296 0.4958 0.0000
vt 0.7274 0.4890 0.0000
vt 0.6956 0.5052 0.0000
vt 0.6998 0.5110 0.0000
vt 0.6956 0.6897 0.0000
vt 0.6998 0.6840 0.0000
vt 0.6761 0.6603 0.0000
vt 0.6704 0.6645 0.0000
vt 0.6610 0.6305 0.0000
vt 0.6542 0.6327 0.0000
vt 0.6557 0.5975 0.0000
vt 0.6486 0.5975 0.0000
vt 0.6610 0.5644 0.0000
vt 0.6542 0.5622 0.0000
vt 0.6761 0.5346 0.0000
vt 0.6704 0.5305 0.0000
vt 0.4770 0.0388 0.0000
vt 0.4934 0.0456 0.0000
vt 0.6590 0.0523 0.0000
vt 0.4334 0.0074 0.0000
vt 0.4593 0.0388 0.0000
vt 0.4428 0.0456 0.0000
vt 0.3777 0.2861 0.0000
vt 0.6038 0.3311 0.0000
vt 0.6694 0.2265 0.0000
vt 0.3571 0.1644 0.0000
vt 0.5060 0.0581 0.0000
vt 0.5128 0.0745 0.0000
vt 0.5128 0.0923 0.0000
vt 0.5060 0.1087 0.0000
vt 0.4934 0.1213 0.0000
vt 0.4770 0.1281 0.0000
vt 0.4593 0.1281 0.0000
vt 0.4428 0.1213 0.0000
vt 0.4303 0.1087 0.0000
vt 0.4235 0.0923 0.0000
vt 0.4235 0.0745 0.0000
vt 0.4303 0.0581 0.0000
vt 0.9049 0.4948 -1.3306
vt 0.9174 0.4864 -1.3306
vt 0.9322 0.4835 -1.3306
vt 0.8965 0.5073 -1.3306
vt 0.8936 0.5220 1.3306
vt 0.8965 0.5368 -1.3306
vt 0.9469 0.4864 -1.3306
vt 0.9595 0.4948 -1.3306
vt 0.9678 0.5073 -1.3306
vt 0.9708 0.5220 1.3306
vt 0.9678 0.5368 -1.3306
vt 0.9595 0.5493 -1.3306
vt 0.9049 0.5493 -1.3306
vt 0.9469 0.5577 -1.3306
vt 0.9174 0.5577 -1.3306
vt 0.9322 0.5606 -1.3306
# 242 texture coords

g TurretInteriorSpace
usemtl Standardmaterial
s 8
f 1/1/1 2/2/1 3/3/2 4/4/2 
s 16
f 5/5/3 6/6/3 7/7/3 8/8/3 
s 32
f 9/9/4 10/10/4 6/11/5 5/12/5 
s 64
f 11/13/6 4/14/6 3/15/6 12/16/6 
s 8
f 8/17/7 7/18/7 2/2/1 1/1/1 
s 32
f 12/19/8 10/10/4 9/9/4 11/20/8 
s 4
f 13/21/9 14/22/10 15/23/10 16/24/9 
f 17/25/11 18/26/11 15/23/10 14/22/10 
f 19/27/12 20/28/12 18/26/11 17/25/11 
f 20/28/12 19/27/12 21/29/13 22/30/13 
f 21/29/13 23/31/14 24/32/14 22/30/13 
f 24/32/14 23/31/14 25/33/15 26/34/15 
s 8
f 27/35/16 28/36/17 26/37/16 25/38/16 
s 4
f 27/35/18 29/39/19 30/40/19 28/36/18 
f 29/39/19 31/41/20 32/42/20 30/40/19 
f 33/43/21 32/42/20 31/41/20 34/44/21 
f 35/45/22 33/43/21 34/44/21 36/46/22 
f 37/47/23 35/45/22 36/46/22 38/48/23 
f 38/48/23 39/49/24 40/50/24 37/47/23 
f 41/51/25 42/52/25 40/50/24 39/49/24 
f 43/53/26 44/54/27 42/52/25 41/51/25 
f 43/53/26 45/55/28 46/56/6 44/54/27 
f 45/55/28 47/57/29 48/58/29 46/56/6 
f 47/57/29 49/59/30 50/60/30 48/58/29 
f 51/61/31 50/60/30 49/59/30 52/62/31 
f 16/24/9 51/61/31 52/62/31 13/21/9 
s off
f 53/63/32 54/64/32 55/65/32 56/66/32 
f 57/67/33 58/68/33 54/64/33 53/63/33 
f 59/69/34 58/68/34 57/67/34 60/70/34 
f 61/71/35 62/72/35 59/69/35 60/70/35 
f 63/73/36 64/74/36 62/72/36 61/71/36 
f 65/75/37 66/76/37 64/74/37 63/73/37 
f 67/77/38 68/78/38 66/79/38 65/80/38 
f 69/81/39 70/82/39 68/78/39 67/77/39 
f 71/83/40 72/84/40 70/82/40 69/81/40 
f 73/85/41 72/84/41 71/83/41 74/86/41 
f 75/87/42 73/85/42 74/86/42 76/88/42 
f 77/89/43 78/90/43 75/87/43 76/88/43 
f 79/91/44 80/92/44 78/90/44 77/89/44 
f 81/93/45 82/94/45 80/92/45 79/91/45 
f 83/95/46 84/96/46 82/94/46 81/93/46 
f 85/97/15 86/98/15 84/96/15 83/95/15 
f 87/99/17 86/98/17 85/97/17 88/100/17 
f 89/101/47 90/102/47 87/99/47 88/100/47 
f 91/103/48 92/104/48 90/102/48 89/101/48 
f 56/66/49 55/65/49 92/104/49 91/103/49 
s 2
f 93/105/50 94/106/10 95/107/10 96/108/50 
f 94/106/10 97/109/51 98/110/51 95/107/10 
f 98/110/51 97/109/51 99/111/40 100/112/40 
f 100/112/40 99/111/40 101/113/52 102/114/52 
f 102/114/52 101/113/52 103/115/53 104/116/53 
f 104/116/53 103/115/53 105/117/54 106/118/54 
f 106/118/54 105/117/54 107/119/35 108/120/35 
f 108/120/35 107/119/35 109/121/55 110/122/55 
f 110/122/55 109/121/55 111/123/56 112/124/56 
f 112/124/56 111/123/56 113/125/57 114/126/57 
f 113/125/57 115/127/58 116/128/58 114/126/57 
f 115/127/58 117/129/59 118/130/59 116/128/58 
s 8
f 117/129/60 119/131/60 120/132/60 118/130/60 
s 2
f 119/133/61 121/134/62 122/135/62 120/136/61 
f 121/134/62 123/137/45 124/138/45 122/135/62 
f 123/137/45 93/105/50 96/108/50 124/138/45 
f 4/139/63 11/140/63 46/141/63 48/142/63 
f 4/139/63 48/142/63 50/143/63 51/144/63 
f 4/139/63 51/144/63 16/145/63 1/146/63 
f 44/147/63 46/141/63 11/140/63 42/148/63 
f 40/149/63 42/148/63 11/140/63 37/150/63 
f 37/150/63 11/140/63 9/151/63 35/152/63 
f 33/153/63 35/152/63 9/151/63 32/154/63 
f 32/154/63 9/151/63 5/155/63 30/156/63 
f 28/157/63 30/156/63 5/155/63 26/158/63 
f 26/158/63 5/155/63 8/159/63 24/160/63 
f 22/161/63 24/160/63 8/159/63 20/162/63 
f 18/163/63 20/162/63 8/159/63 15/164/63 
f 15/164/63 8/159/63 1/146/63 16/145/63 
s off
f 14/165/64 13/166/64 55/167/64 54/168/64 
f 17/169/64 14/165/64 54/168/64 58/170/64 
f 19/171/64 17/169/64 58/170/64 59/172/64 
f 21/173/64 19/171/64 59/172/64 62/174/64 
f 23/175/64 21/173/64 62/174/64 64/176/64 
f 25/177/64 23/175/64 64/176/64 66/178/64 
f 27/179/64 25/177/64 66/178/64 68/180/64 
f 29/181/64 27/179/64 68/180/64 70/182/64 
f 31/183/64 29/181/64 70/182/64 72/184/64 
f 34/185/64 31/183/64 72/184/64 73/186/64 
f 36/187/64 34/185/64 73/186/64 75/188/64 
f 38/189/64 36/187/64 75/188/64 78/190/64 
f 38/189/64 78/190/64 80/191/64 39/192/64 
f 92/193/64 55/167/64 13/166/64 52/194/64 
f 92/193/64 52/194/64 49/195/64 90/196/64 
f 90/196/64 49/195/64 47/197/64 87/198/64 
f 87/198/64 47/197/64 45/199/64 86/200/64 
f 86/200/64 45/199/64 43/201/64 84/202/64 
f 84/202/64 43/201/64 41/203/64 82/204/64 
f 82/204/64 41/203/64 39/192/64 80/191/64 
s 4
f 120/205/64 122/206/65 7/207/64 6/208/64 
f 118/209/64 120/205/64 6/208/64 116/210/64 
f 12/211/64 3/212/65 2/213/64 10/214/65 
f 7/207/64 122/206/65 124/215/64 96/216/64 
f 7/207/64 96/216/64 95/217/65 98/218/65 
f 7/207/64 98/218/65 100/219/65 2/213/64 
f 2/213/64 100/219/65 102/220/64 104/221/66 
f 2/213/64 104/221/66 106/222/65 10/214/65 
f 10/214/65 106/222/65 108/223/64 110/224/64 
f 10/214/65 110/224/64 112/225/64 114/226/64 
f 6/208/64 10/214/65 114/226/64 116/210/64 
s 1
f 107/227/64 105/228/64 103/229/64 109/230/64 
f 111/231/64 109/230/64 103/229/64 113/232/64 
f 113/232/64 103/229/64 101/233/64 99/234/64 
f 113/232/64 99/234/64 97/235/64 94/236/64 
f 113/232/64 94/236/64 93/237/64 123/238/64 
f 115/239/64 113/232/64 123/238/64 121/240/64 
f 117/241/64 115/239/64 121/240/64 119/242/64 
# 113 polygons

