# 3ds Max Wavefront OBJ Exporter v0.97b - (c)2007 guruware
# File Created: 10.01.2017 06:20:43

mtllib VisionBlockCupola3L.mtl

#
# object Box007
#

v  -6.6267 16.0656 -0.8690
v  -8.3964 16.0656 -1.8908
v  -8.1071 16.0656 -2.3919
v  -6.3374 16.0656 -1.3701
v  -6.6267 16.6542 -0.8690
v  -6.2988 16.6542 -1.4369
v  -8.0685 16.6542 -2.4586
v  -8.3964 16.6542 -1.8908
v  -6.5001 16.2240 -1.3847
v  -8.0132 16.2240 -2.2583
v  -7.9939 16.5189 -2.2917
v  -6.4808 16.5189 -1.4181
v  -7.9692 16.2125 -2.3345
v  -6.4561 16.2125 -1.4609
v  -7.9499 16.5073 -2.3679
v  -6.4368 16.5073 -1.4943
# 16 vertices

vn 0.0000 -1.0000 -0.0000
vn 0.0000 1.0000 -0.0000
vn 0.8660 0.0000 0.5000
vn 0.4958 -0.1299 -0.8587
vn -0.8660 0.0000 -0.5000
vn -0.5000 0.0000 0.8660
vn 0.0649 0.9915 -0.1125
vn -0.0649 -0.9915 0.1125
# 8 vertex normals

vt 0.9980 0.0020 0.0000
vt 0.9980 0.4706 0.0000
vt 0.8653 0.4706 0.0000
vt 0.8653 0.0020 0.0000
vt 0.6972 0.0020 0.0000
vt 0.8476 0.0020 0.0000
vt 0.8476 0.4706 0.0000
vt 0.6972 0.4706 0.0000
vt 0.6972 0.4884 0.0000
vt 0.8299 0.4884 0.0000
vt 0.8476 0.6233 0.0000
vt 0.6972 0.6233 0.0000
vt 0.4884 0.6972 0.0000
vt 0.8890 0.6972 0.0000
vt 0.8890 0.7654 0.0000
vt 0.4884 0.7654 0.0000
vt 0.5060 0.8511 0.0000
vt 0.6387 0.8511 0.0000
vt 0.6387 0.9860 0.0000
vt 0.4884 0.9860 0.0000
vt 0.0020 0.8511 0.0000
vt 0.4706 0.8511 0.0000
vt 0.4706 0.9860 0.0000
vt 0.0020 0.9860 0.0000
vt 0.0020 0.6972 0.0000
vt 0.4706 0.6972 0.0000
vt 0.4366 0.7312 0.0000
vt 0.0360 0.7312 0.0000
vt 0.4706 0.8333 0.0000
vt 0.4366 0.7993 0.0000
vt 0.0020 0.8333 0.0000
vt 0.0360 0.7993 0.0000
vt 0.6795 0.0164 0.0000
vt 0.3961 0.2997 0.0000
vt 0.3817 0.2853 0.0000
vt 0.6651 0.0020 0.0000
vt 0.3479 0.3479 0.0000
vt 0.3335 0.3335 0.0000
vt 0.0646 0.6312 0.0000
vt 0.0502 0.6168 0.0000
vt 0.0164 0.6794 0.0000
vt 0.0020 0.6651 0.0000
# 42 texture coords

g Box007
usemtl Standardmaterial
s 2
f 1/1/1 2/2/1 3/3/1 4/4/1 
s 4
f 5/5/2 6/6/2 7/7/2 8/8/2 
s 8
f 1/9/3 4/10/3 6/11/3 5/12/3 
s 16
f 9/13/4 10/14/4 11/15/4 12/16/4 
s 32
f 3/17/5 2/18/5 8/19/5 7/20/5 
s 64
f 2/21/6 1/22/6 5/23/6 8/24/6 
s off
f 4/25/4 3/26/4 13/27/4 14/28/4 
f 3/26/4 7/29/4 15/30/4 13/27/4 
f 7/29/4 6/31/4 16/32/4 15/30/4 
f 6/31/4 4/25/4 14/28/4 16/32/4 
f 14/33/7 13/34/7 10/35/7 9/36/7 
f 13/34/3 15/37/3 11/38/3 10/35/3 
f 15/37/8 16/39/8 12/40/8 11/38/8 
f 16/39/5 14/41/5 9/42/5 12/40/5 
# 14 polygons

