# 3ds Max Wavefront OBJ Exporter v0.97b - (c)2007 guruware
# File Created: 10.01.2017 06:19:22

mtllib VisionBlockCupola2R.mtl

#
# object Box008
#

v  -8.3695 16.0656 -5.9223
v  -6.5998 16.0656 -6.9440
v  -6.3104 16.0656 -6.4429
v  -8.0801 16.0656 -5.4212
v  -8.3695 16.6542 -5.9223
v  -8.0416 16.6542 -5.3544
v  -6.2719 16.6542 -6.3761
v  -6.5998 16.6542 -6.9440
v  -7.9862 16.2240 -5.5548
v  -6.4731 16.2240 -6.4284
v  -6.4538 16.5189 -6.3949
v  -7.9669 16.5189 -5.5213
v  -6.4291 16.2125 -6.3522
v  -7.9422 16.2125 -5.4786
v  -6.4098 16.5073 -6.3187
v  -7.9229 16.5073 -5.4451
# 16 vertices

vn 0.0000 -1.0000 -0.0000
vn 0.0000 1.0000 -0.0000
vn -0.8660 0.0000 0.5000
vn 0.4958 -0.1299 0.8587
vn 0.8660 0.0000 -0.5000
vn -0.5000 0.0000 -0.8660
vn 0.0649 0.9915 0.1125
vn -0.0649 -0.9915 -0.1125
# 8 vertex normals

vt 0.9980 0.0020 0.0000
vt 0.9980 0.4706 0.0000
vt 0.8653 0.4706 0.0000
vt 0.8653 0.0020 0.0000
vt 0.6972 0.0020 0.0000
vt 0.8476 0.0020 0.0000
vt 0.8476 0.4706 0.0000
vt 0.6972 0.4706 0.0000
vt 0.6972 0.4884 0.0000
vt 0.8299 0.4884 0.0000
vt 0.8476 0.6233 0.0000
vt 0.6972 0.6233 0.0000
vt 0.4884 0.6972 0.0000
vt 0.8890 0.6972 0.0000
vt 0.8890 0.7654 0.0000
vt 0.4884 0.7654 0.0000
vt 0.5060 0.8511 0.0000
vt 0.6387 0.8511 0.0000
vt 0.6387 0.9860 0.0000
vt 0.4884 0.9860 0.0000
vt 0.0020 0.8511 0.0000
vt 0.4706 0.8511 0.0000
vt 0.4706 0.9860 0.0000
vt 0.0020 0.9860 0.0000
vt 0.0020 0.6972 0.0000
vt 0.4706 0.6972 0.0000
vt 0.4366 0.7312 0.0000
vt 0.0360 0.7312 0.0000
vt 0.4706 0.8333 0.0000
vt 0.4366 0.7993 0.0000
vt 0.0020 0.8333 0.0000
vt 0.0360 0.7993 0.0000
vt 0.6795 0.0164 0.0000
vt 0.3961 0.2997 0.0000
vt 0.3817 0.2853 0.0000
vt 0.6651 0.0020 0.0000
vt 0.3479 0.3479 0.0000
vt 0.3335 0.3335 0.0000
vt 0.0646 0.6312 0.0000
vt 0.0502 0.6168 0.0000
vt 0.0164 0.6794 0.0000
vt 0.0020 0.6651 0.0000
# 42 texture coords

g Box008
usemtl Standardmaterial
s 2
f 1/1/1 2/2/1 3/3/1 4/4/1 
s 4
f 5/5/2 6/6/2 7/7/2 8/8/2 
s 8
f 1/9/3 4/10/3 6/11/3 5/12/3 
s 16
f 9/13/4 10/14/4 11/15/4 12/16/4 
s 32
f 3/17/5 2/18/5 8/19/5 7/20/5 
s 64
f 2/21/6 1/22/6 5/23/6 8/24/6 
s off
f 4/25/4 3/26/4 13/27/4 14/28/4 
f 3/26/4 7/29/4 15/30/4 13/27/4 
f 7/29/4 6/31/4 16/32/4 15/30/4 
f 6/31/4 4/25/4 14/28/4 16/32/4 
f 14/33/7 13/34/7 10/35/7 9/36/7 
f 13/34/3 15/37/3 11/38/3 10/35/3 
f 15/37/8 16/39/8 12/40/8 11/38/8 
f 16/39/5 14/41/5 9/42/5 12/40/5 
# 14 polygons

