# 3ds Max Wavefront OBJ Exporter v0.97b - (c)2007 guruware
# File Created: 13.12.2016 03:03:04

mtllib tankgun.mtl

#
# object Cylinder016
#

v  -19.5393 13.8944 -0.3427
v  -19.5393 13.7102 -0.7873
v  -37.7563 13.7102 -0.7873
v  -37.7563 13.8944 -0.3427
v  -19.5393 13.2656 -0.9715
v  -37.7563 13.2656 -0.9715
v  -19.5393 12.8210 -0.7873
v  -37.7563 12.8210 -0.7873
v  -19.5393 12.6368 -0.3427
v  -37.7563 12.6368 -0.3427
v  -19.5393 12.8210 0.1019
v  -37.7563 12.8210 0.1019
v  -19.5393 13.2656 0.2861
v  -37.7563 13.2656 0.2861
v  -19.5393 13.7102 0.1019
v  -37.7563 13.7102 0.1019
v  -37.7563 13.9158 -0.9929
v  -37.7563 14.1851 -0.3427
v  -37.7563 13.2656 -1.2622
v  -37.7563 12.6154 -0.9929
v  -37.7563 12.3461 -0.3427
v  -37.7563 12.6154 0.3075
v  -37.7563 13.2656 0.5768
v  -37.7563 13.9158 0.3075
v  -40.0277 13.9158 -0.9929
v  -40.0277 14.1851 -0.3427
v  -40.0277 13.2656 -1.2622
v  -40.0277 12.6154 -0.9929
v  -40.0277 12.3461 -0.3427
v  -40.0277 12.6154 0.3075
v  -40.0277 13.2656 0.5768
v  -40.0277 13.9158 0.3075
v  -40.0277 13.2656 -0.3427
v  -19.5393 13.2656 -0.3427
# 34 vertices

vn -0.0000 1.0000 -0.0000
vn -0.0000 0.7071 -0.7071
vn -0.0000 1.0000 0.0000
vn 0.0000 -0.0000 -1.0000
vn -0.0000 -0.0000 -1.0000
vn 0.0000 -0.7071 -0.7071
vn 0.0000 -1.0000 0.0000
vn 0.0000 -0.7071 0.7071
vn -0.0000 -0.0000 1.0000
vn 0.0000 -0.0000 1.0000
vn -0.0000 0.7071 0.7071
vn 1.0000 0.0000 -0.0000
vn -0.0000 0.9239 -0.3827
vn -0.0000 0.3827 -0.9239
vn 0.0000 -0.3827 -0.9239
vn 0.0000 -0.9239 -0.3827
vn 0.0000 -0.9239 0.3827
vn 0.0000 -0.3827 0.9239
vn -0.0000 0.3827 0.9239
vn -0.0000 0.9239 0.3827
vn -1.0000 -0.0000 -0.0000
# 21 vertex normals

vt 0.9814 0.7822 0.0000
vt 0.9814 0.8077 0.0000
vt 0.0164 0.8077 0.0000
vt 0.0164 0.7822 0.0000
vt 0.9814 0.8332 0.0000
vt 0.0164 0.8332 0.0000
vt 0.9814 0.8587 0.0000
vt 0.0164 0.8587 0.0000
vt 0.9814 0.8842 0.0000
vt 0.0164 0.8842 0.0000
vt 0.9814 0.9097 0.0000
vt 0.0164 0.9097 0.0000
vt 0.9814 0.9352 0.0000
vt 0.0164 0.9352 0.0000
vt 0.9814 0.9607 0.0000
vt 0.0164 0.9607 0.0000
vt 0.9814 0.9862 0.0000
vt 0.0164 0.9862 0.0000
vt 0.1090 0.6338 0.0000
vt 0.0716 0.6493 0.0000
vt 0.0543 0.6320 0.0000
vt 0.1090 0.6093 0.0000
vt 0.0561 0.6868 0.2500
vt 0.0316 0.6868 0.0000
vt 0.0716 0.7242 0.0000
vt 0.0543 0.7415 0.0000
vt 0.1090 0.7397 0.0000
vt 0.1090 0.7642 0.0000
vt 0.1465 0.7242 0.0000
vt 0.1638 0.7415 0.0000
vt 0.1620 0.6868 0.2500
vt 0.1865 0.6868 0.0000
vt 0.1465 0.6493 0.0000
vt 0.1638 0.6320 0.0000
vt 0.3919 0.5290 0.0000
vt 0.4650 0.5290 0.0000
vt 0.4650 0.7646 0.0000
vt 0.3919 0.7646 0.0000
vt 0.5380 0.5290 0.0000
vt 0.5380 0.7646 0.2500
vt 0.6110 0.5290 0.0000
vt 0.6110 0.7646 0.0000
vt 0.6840 0.5290 0.0000
vt 0.6840 0.7646 0.0000
vt 0.7570 0.5290 0.0000
vt 0.7570 0.7646 0.0000
vt 0.8300 0.5290 0.0000
vt 0.8300 0.7646 0.2500
vt 0.9030 0.5290 0.0000
vt 0.9030 0.7646 0.0000
vt 0.9760 0.5290 0.0000
vt 0.9760 0.7646 0.0000
vt 0.2734 0.7638 0.0000
vt 0.2188 0.7411 0.0000
vt 0.2734 0.6865 0.0000
vt 0.1961 0.6865 0.2500
vt 0.2188 0.6318 0.0000
vt 0.2734 0.6092 0.0000
vt 0.3281 0.6318 0.0000
vt 0.3507 0.6865 0.2500
vt 0.3281 0.7411 0.0000
vt 0.0685 0.4984 0.0000
vt 0.0950 0.4874 0.0000
vt 0.0950 0.5249 0.0000
vt 0.1215 0.4984 0.0000
vt 0.1325 0.5249 -0.2500
vt 0.1215 0.5514 0.0000
vt 0.0950 0.5624 0.0000
vt 0.0685 0.5514 0.0000
vt 0.0575 0.5249 -0.2500
# 70 texture coords

g Cylinder016
usemtl wire_225087143
s 8
f 1/1/1 2/2/2 3/3/2 4/4/3 
f 2/2/2 5/5/4 6/6/5 3/3/2 
f 5/5/4 7/7/6 8/8/6 6/6/5 
f 7/7/6 9/9/7 10/10/7 8/8/6 
f 9/9/7 11/11/8 12/12/8 10/10/7 
f 11/11/8 13/13/9 14/14/10 12/12/8 
f 13/13/9 15/15/11 16/16/11 14/14/10 
f 15/15/11 1/17/1 4/18/3 16/16/11 
s off
f 4/19/12 3/20/12 17/21/12 18/22/12 
f 3/20/12 6/23/12 19/24/12 17/21/12 
f 6/23/12 8/25/12 20/26/12 19/24/12 
f 8/25/12 10/27/12 21/28/12 20/26/12 
f 10/27/12 12/29/12 22/30/12 21/28/12 
f 12/29/12 14/31/12 23/32/12 22/30/12 
f 14/31/12 16/33/12 24/34/12 23/32/12 
f 16/33/12 4/19/12 18/22/12 24/34/12 
f 18/35/13 17/36/13 25/37/13 26/38/13 
f 17/36/14 19/39/14 27/40/14 25/37/14 
f 19/39/15 20/41/15 28/42/15 27/40/15 
f 20/41/16 21/43/16 29/44/16 28/42/16 
f 21/43/17 22/45/17 30/46/17 29/44/17 
f 22/45/18 23/47/18 31/48/18 30/46/18 
f 23/47/19 24/49/19 32/50/19 31/48/19 
f 24/49/20 18/51/20 26/52/20 32/50/20 
f 26/53/21 25/54/21 33/55/21 
f 25/54/21 27/56/21 33/55/21 
f 27/56/21 28/57/21 33/55/21 
f 28/57/21 29/58/21 33/55/21 
f 29/58/21 30/59/21 33/55/21 
f 30/59/21 31/60/21 33/55/21 
f 31/60/21 32/61/21 33/55/21 
f 32/61/21 26/53/21 33/55/21 
f 2/62/12 1/63/12 34/64/12 
f 1/63/12 15/65/12 34/64/12 
f 15/65/12 13/66/12 34/64/12 
f 13/66/12 11/67/12 34/64/12 
f 11/67/12 9/68/12 34/64/12 
f 9/68/12 7/69/12 34/64/12 
f 7/69/12 5/70/12 34/64/12 
f 5/70/12 2/62/12 34/64/12 
# 24 polygons - 16 triangles

