# 3ds Max Wavefront OBJ Exporter v0.97b - (c)2007 guruware
# File Created: 13.12.2016 02:40:44

mtllib tankturret.mtl

#
# object Box004
#

v  -19.6342 9.5837 -7.4722
v  -12.4579 9.5837 -0.3720
v  -19.6342 9.5837 6.7281
v  -19.6342 16.9523 6.7281
v  -12.4579 16.9523 -0.3720
v  -19.6342 16.9523 -7.4722
v  -1.9150 9.5837 6.7281
v  -1.9150 9.5837 -7.4722
v  -1.9150 16.9523 -7.4722
v  -1.9150 16.9523 6.7281
v  -12.4579 9.5837 -10.2314
v  -12.4579 9.5837 9.4873
v  -12.4579 16.9523 9.4873
v  -12.4579 16.9523 -10.2314
# 14 vertices

vn -0.0000 -1.0000 0.0000
vn 0.0000 1.0000 -0.0000
vn 1.0000 0.0000 -0.0000
vn -1.0000 0.0000 -0.0000
vn 0.0000 -1.0000 0.0000
vn 0.0000 -1.0000 -0.0000
vn -0.0000 -1.0000 -0.0000
vn -0.3589 0.0000 0.9334
vn 0.2532 0.0000 -0.9674
vn 0.2532 0.0000 0.9674
vn -0.3589 0.0000 -0.9334
# 11 vertex normals

vt 0.3513 0.3007 0.0000
vt 0.2128 0.4380 0.0000
vt 0.0742 0.3007 0.0000
vt 0.0734 0.9882 0.0000
vt 0.2110 0.8517 0.0000
vt 0.3487 0.9882 0.0000
vt 0.0751 0.1443 0.0000
vt 0.3524 0.1443 0.0000
vt 0.3524 0.2882 0.0000
vt 0.0751 0.2882 0.0000
vt 0.4260 0.8377 0.0000
vt 0.7045 0.8377 0.0000
vt 0.7045 0.9822 0.0000
vt 0.4260 0.9822 0.0000
vt 0.3513 0.6397 0.0000
vt 0.0742 0.6397 0.0000
vt 0.0734 0.6513 0.0000
vt 0.3487 0.6513 0.0000
vt 0.4052 0.4380 0.0000
vt 0.0204 0.4380 0.0000
vt 0.0199 0.8517 0.0000
vt 0.4022 0.8517 0.0000
vt 0.6621 0.5700 0.0000
vt 0.4636 0.5700 0.0000
vt 0.4636 0.3702 0.0000
vt 0.6621 0.3702 0.0000
vt 0.7451 0.7961 0.0000
vt 0.4637 0.7961 0.0000
vt 0.4637 0.5962 0.0000
vt 0.7451 0.5962 0.0000
vt 0.9435 0.3702 0.0000
vt 0.9435 0.5700 0.0000
vt 0.9436 0.5962 0.0000
vt 0.9436 0.7961 0.0000
# 34 texture coords

g Box004
usemtl Standardmaterial
s 2
f 1/1/1 2/2/1 3/3/1 
s 4
f 4/4/2 5/5/2 6/6/2 
s 16
f 7/7/3 8/8/3 9/9/3 10/10/3 
s 64
f 1/11/4 3/12/4 4/13/4 6/14/4 
s 2
f 8/15/5 7/16/5 2/2/1 
s 4
f 10/17/2 9/18/2 5/5/2 
s off
f 1/1/6 11/19/6 2/2/6 
f 2/2/7 12/20/7 3/3/7 
f 4/4/2 13/21/2 5/5/2 
f 5/5/2 14/22/2 6/6/2 
f 13/23/8 4/24/8 3/25/8 12/26/8 
f 14/27/9 9/28/9 8/29/9 11/30/9 
f 7/16/6 12/20/6 2/2/6 
f 2/2/6 11/19/6 8/15/6 
f 9/18/2 14/22/2 5/5/2 
f 5/5/2 13/21/2 10/17/2 
f 12/26/10 7/31/10 10/32/10 13/23/10 
f 11/30/11 1/33/11 6/34/11 14/27/11 
# 6 polygons - 12 triangles

