# 3ds Max Wavefront OBJ Exporter v0.97b - (c)2007 guruware
# File Created: 13.12.2016 02:07:10

mtllib tankhull.mtl

#
# object Box001
#

v  -28.2011 -0.7776 10.2568
v  -28.2011 -0.7776 -11.0527
v  20.1295 -0.7776 -11.0527
v  20.1295 -0.7776 10.2568
v  -28.2011 9.3598 10.2568
v  21.8846 9.3598 10.2568
v  21.8846 9.3598 -11.0527
v  -28.2011 9.3598 -11.0527
v  -28.2011 4.8982 10.2568
v  -35.6436 3.0629 10.2568
v  -34.5673 -0.4651 10.2568
v  22.2722 4.8982 -11.0527
v  22.2722 4.8982 10.2568
v  -28.2011 4.8982 -11.0527
v  -34.5673 -0.4651 -11.0527
v  -28.2011 5.5036 -11.0527
v  -28.2011 5.5036 10.2568
v  -35.8275 3.5701 -11.0527
v  -35.8275 3.5701 10.2568
v  -35.6436 3.0629 -11.0527
v  22.2722 5.5036 10.2568
v  22.2722 5.5036 -11.0527
v  22.2722 5.5036 14.9328
v  -28.2011 5.5036 14.9328
v  -28.2011 4.8982 14.9328
v  22.2722 4.8982 14.9328
v  -28.2011 5.5036 -15.7287
v  22.2722 5.5036 -15.7287
v  22.2722 4.8982 -15.7287
v  -28.2011 4.8982 -15.7287
v  -35.8275 3.5701 14.9328
v  -35.6436 3.0629 14.9328
v  -35.8275 3.5701 -15.7287
v  -35.6436 3.0629 -15.7287
# 34 vertices

vn 0.0000 -1.0000 -0.0000
vn 0.0000 1.0000 -0.0000
vn 0.0000 0.0000 1.0000
vn 0.9356 -0.3532 -0.0000
vn 0.9838 -0.1795 -0.0000
vn 0.0000 0.0000 -1.0000
vn -0.0490 -0.9988 -0.0000
vn -0.6146 -0.7888 -0.0000
vn -1.0000 0.0000 -0.0000
vn -0.7892 0.6141 -0.0000
vn -0.8836 0.4683 -0.0000
vn -0.9486 -0.3165 -0.0000
vn 0.9950 0.1000 -0.0000
vn 0.9987 0.0501 -0.0000
vn 1.0000 0.0000 -0.0000
vn -0.2458 0.9693 -0.0000
vn -0.9401 -0.3409 -0.0000
vn 0.2394 -0.9709 -0.0000
# 18 vertex normals

vt 0.1402 0.2865 0.0000
vt 0.0219 0.2865 0.0000
vt 0.0219 0.0184 0.0000
vt 0.1402 0.0184 0.0000
vt 0.3190 0.4454 0.0000
vt 0.3190 0.9787 0.0000
vt 0.0707 0.9787 0.0000
vt 0.0707 0.4454 0.0000
vt 0.4915 0.2367 0.0000
vt 0.5108 0.1581 0.0000
vt 0.5481 0.1695 0.0000
vt 0.5514 0.2367 0.0000
vt 0.6272 0.8723 0.0000
vt 0.6272 0.9391 0.0000
vt 0.3807 0.9391 0.0000
vt 0.3807 0.8723 0.0000
vt 0.4083 0.2369 0.0000
vt 0.4683 0.2369 0.0000
vt 0.4683 0.7701 0.0000
vt 0.4083 0.7474 0.0000
vt 0.1402 0.3219 0.0000
vt 0.0219 0.3219 0.0000
vt 0.0707 0.4271 0.0000
vt 0.3190 0.4271 0.0000
vt 0.0707 0.3368 0.0000
vt 0.3190 0.3368 0.0000
vt 0.6326 0.8485 0.0000
vt 0.3837 0.8485 0.0000
vt 0.3837 0.8054 0.0000
vt 0.6326 0.8054 0.0000
vt 0.6272 0.9904 0.0000
vt 0.3807 0.9904 0.0000
vt 0.3807 0.9461 0.0000
vt 0.6272 0.9461 0.0000
vt 0.8545 0.9869 0.0000
vt 0.8545 0.4610 0.0000
vt 0.8832 0.4610 0.0000
vt 0.8832 0.9910 0.0000
vt 0.9295 0.9913 0.0000
vt 0.9295 0.4652 0.0000
vt 0.9581 0.4611 0.0000
vt 0.9581 0.9913 0.0000
vt 0.6309 0.8548 0.0000
vt 0.3820 0.8548 0.0000
vt 0.5514 0.7474 0.0000
vt 0.4915 0.7701 0.0000
vt 0.4116 0.1696 0.0000
vt 0.4489 0.1582 0.0000
vt 0.7980 0.3815 0.0000
vt 0.7980 0.9104 0.0000
vt 0.7916 0.9104 0.0000
vt 0.7916 0.3815 0.0000
vt 0.7296 0.9103 0.0000
vt 0.7296 0.3816 0.0000
vt 0.7359 0.3816 0.0000
vt 0.7359 0.9103 0.0000
vt 0.9179 0.4610 0.0000
vt 0.9179 0.9910 0.0000
vt 0.9162 0.0576 0.0000
vt 0.4230 0.0576 0.0000
vt 0.4230 0.0116 0.0000
vt 0.9162 0.0116 0.0000
vt 0.3266 0.9461 0.0000
vt 0.3266 0.9391 0.0000
vt 0.9929 0.4611 0.0000
vt 0.9929 0.9913 0.0000
vt 0.6813 0.9391 0.0000
vt 0.6813 0.9461 0.0000
vt 0.4232 0.0658 0.0000
vt 0.9164 0.0658 0.0000
vt 0.9164 0.1119 0.0000
vt 0.4232 0.1119 0.0000
vt 0.7777 0.9903 0.0000
vt 0.7724 0.9884 0.0000
vt 0.7498 0.9902 0.0000
vt 0.7552 0.9883 0.0000
vt 0.3735 0.3368 0.0000
vt 0.3735 0.4271 0.0000
vt 0.6855 0.8485 0.0000
vt 0.6855 0.8548 0.0000
vt 0.9911 0.0576 0.0000
vt 0.9911 0.0116 0.0000
vt 0.0162 0.4271 0.0000
vt 0.0162 0.3368 0.0000
vt 0.9913 0.0658 0.0000
vt 0.9913 0.1119 0.0000
vt 0.3274 0.8548 0.0000
vt 0.3274 0.8485 0.0000
# 88 texture coords

g Box001
usemtl Standardmaterial
s 2
f 1/1/1 2/2/1 3/3/1 4/4/1 
s 4
f 5/5/2 6/6/2 7/7/2 8/8/2 
s 8
f 9/9/3 10/10/3 11/11/3 1/12/3 
s 16
f 3/13/4 12/14/5 13/15/5 4/16/4 
s 32
f 2/17/6 14/18/6 12/19/6 3/20/6 
s 64
f 1/1/7 11/21/8 15/22/8 2/2/7 
f 5/5/9 8/8/9 16/23/10 17/24/10 
f 17/24/10 16/23/10 18/25/11 19/26/11 
f 10/27/12 20/28/12 15/29/8 11/30/8 
s 16
f 7/31/13 6/32/13 21/33/14 22/34/14 
s 8
f 6/35/3 5/36/3 17/37/3 21/38/3 
s 32
f 8/39/6 7/40/6 22/41/6 16/42/6 
s 64
f 19/43/11 18/44/11 20/28/12 10/27/12 
s 8
f 4/45/3 13/46/3 9/9/3 1/12/3 
s 32
f 15/47/6 20/48/6 14/18/6 2/17/6 
s 8
f 23/49/3 24/50/3 25/51/3 26/52/3 
s 32
f 27/53/6 28/54/6 29/55/6 30/56/6 
s off
f 21/38/2 17/37/2 24/57/2 23/58/2 
f 9/59/1 13/60/1 26/61/1 25/62/1 
f 13/15/15 21/33/15 23/63/15 26/64/15 
f 16/42/2 22/41/2 28/65/2 27/66/2 
f 22/34/15 12/14/15 29/67/15 28/68/15 
f 12/69/1 14/70/1 30/71/1 29/72/1 
s 8
f 25/51/3 24/50/3 31/73/3 32/74/3 
s 32
f 33/75/6 27/53/6 30/56/6 34/76/6 
s off
f 17/24/16 19/26/16 31/77/16 24/78/16 
f 19/43/17 10/27/17 32/79/17 31/80/17 
f 10/81/18 9/59/18 25/62/18 32/82/18 
f 18/25/16 16/23/16 27/83/16 33/84/16 
f 14/70/18 20/85/18 34/86/18 30/71/18 
f 20/28/17 18/44/17 33/87/17 34/88/17 
s 16
f 22/34/14 21/33/14 13/15/5 12/14/5 
# 32 polygons

