# 3ds Max Wavefront OBJ Exporter v0.97b - (c)2007 guruware
# File Created: 13.12.2016 00:08:08

mtllib BasicScene.mtl

#
# object Plane001
#

v  -73.6677 0.0000 72.5139
v  72.3345 0.0000 72.5139
v  72.3345 0.0000 -76.8127
v  -73.6677 0.0000 -76.8127
# 4 vertices

vn 0.0000 1.0000 -0.0000
# 1 vertex normals

vt 0.0342 0.0281 0.0000
vt 0.9658 0.0281 0.0000
vt 0.9658 0.9809 0.0000
vt 0.0342 0.9809 0.0000
# 4 texture coords

g Plane001
usemtl 01___Default
s 1
f 1/1/1 2/2/1 3/3/1 4/4/1 
# 1 polygons

