# 3ds Max Wavefront OBJ Exporter v0.97b - (c)2007 guruware
# File Created: 03.02.2017 06:44:00

mtllib Scene.mtl

#
# object Plane001
#

v  -221.7344 5.7843 172.1176
v  -177.4213 5.7843 172.1176
v  -177.4213 15.7428 137.5626
v  -221.7344 5.7843 137.5626
v  -133.1082 5.7843 172.1176
v  -133.1082 15.7428 137.5626
v  -88.7952 5.7843 172.1176
v  -88.7952 4.7824 137.5626
v  -44.4821 5.7843 172.1176
v  -44.4821 0.0000 137.5626
v  -0.1691 5.7843 172.1176
v  -0.1691 0.0000 137.5626
v  44.1440 5.7843 172.1176
v  44.1440 0.0000 137.5626
v  88.4571 5.7843 172.1176
v  88.4571 0.0000 137.5626
v  132.7701 5.7843 172.1176
v  132.7701 0.0000 137.5626
v  177.0832 5.7843 172.1176
v  177.0832 0.0000 137.5626
v  221.3963 5.7843 172.1176
v  221.3963 5.7843 137.5626
v  -177.4213 15.7428 103.0075
v  -221.7344 5.7843 103.0075
v  -133.1082 15.7428 103.0075
v  -88.7952 2.3584 103.0075
v  -44.4821 0.0000 103.0075
v  -0.1691 0.0000 103.0075
v  44.1440 0.0000 103.0075
v  88.4571 0.0000 103.0075
v  132.7701 0.0000 103.0075
v  177.0832 0.0000 103.0075
v  221.3963 5.7843 103.0075
v  -177.4213 0.0000 68.4524
v  -221.7344 5.7843 68.4524
v  -133.1082 3.5409 68.4524
v  -88.7952 3.8564 68.4524
v  -44.4821 0.0000 68.4524
v  -0.1691 0.0000 68.4524
v  44.1440 0.0000 68.4524
v  88.4571 0.0000 68.4524
v  132.7701 0.0000 68.4524
v  177.0832 0.0000 68.4524
v  221.3963 5.7843 68.4524
v  -177.4213 0.0000 33.8974
v  -221.7344 5.7843 33.8974
v  -133.1082 0.0000 33.8974
v  -88.7952 0.0000 33.8974
v  -44.4821 0.0000 33.8974
v  -0.1691 0.0000 33.8974
v  44.1440 0.0000 33.8974
v  88.4571 0.0000 33.8974
v  132.7701 0.0000 33.8974
v  177.0832 0.0000 33.8974
v  221.3963 5.7843 33.8974
v  -177.4213 0.0000 -0.6577
v  -221.7344 5.7843 -0.6577
v  -133.1082 0.0000 -0.6577
v  -88.7952 0.0000 -0.6577
v  -44.4821 0.0000 -0.6577
v  -0.1691 0.0000 -0.6577
v  44.1440 0.0000 -0.6577
v  88.4571 0.0000 -0.6577
v  132.7701 0.0000 -0.6577
v  177.0832 0.0000 -0.6577
v  221.3963 5.7843 -0.6577
v  -177.4213 0.0000 -35.2127
v  -221.7344 5.7843 -35.2127
v  -133.1082 0.0000 -35.2127
v  -88.7952 0.0000 -35.2127
v  -44.4821 0.0000 -35.2127
v  -0.1691 0.0000 -35.2127
v  44.1440 0.0000 -35.2127
v  88.4571 0.0000 -35.2127
v  132.7701 0.0000 -35.2127
v  177.0832 0.0000 -35.2127
v  221.3963 5.7843 -35.2127
v  -177.4213 0.0000 -69.7678
v  -221.7344 5.7843 -69.7678
v  -133.1082 0.0000 -69.7678
v  -88.7952 0.0000 -69.7678
v  -44.4821 0.0000 -69.7678
v  -0.1691 0.0000 -69.7678
v  44.1440 0.0000 -69.7678
v  88.4571 0.0000 -69.7678
v  132.7701 0.0000 -69.7678
v  177.0832 0.0000 -69.7678
v  221.3963 5.7843 -69.7678
v  -177.4213 0.0000 -104.3229
v  -221.7344 5.7843 -104.3229
v  -133.1082 0.0000 -104.3229
v  -88.7952 0.0000 -104.3229
v  -44.4821 0.0000 -104.3229
v  -0.1691 0.0000 -104.3229
v  44.1440 0.0000 -104.3229
v  88.4571 6.5666 -104.3229
v  132.7701 7.3772 -104.3229
v  177.0832 7.3772 -104.3229
v  221.3963 5.7843 -104.3229
v  -177.4213 0.0000 -138.8779
v  -221.7344 5.7843 -138.8779
v  -133.1082 0.0000 -138.8779
v  -88.7952 0.0000 -138.8779
v  -44.4821 0.0000 -138.8779
v  -0.1691 0.0000 -138.8779
v  44.1440 0.0000 -138.8779
v  88.4571 6.5666 -138.8779
v  132.7701 19.3904 -138.8779
v  177.0832 19.3904 -138.8779
v  221.3963 5.7843 -138.8779
v  -177.4213 5.7843 -173.4330
v  -221.7344 5.7843 -173.4330
v  -133.1082 5.7843 -173.4330
v  -88.7952 5.7843 -173.4330
v  -44.4821 5.7843 -173.4330
v  -0.1691 5.7843 -173.4330
v  44.1440 5.7843 -173.4330
v  88.4571 5.7843 -173.4330
v  132.7701 5.7843 -173.4330
v  177.0832 5.7843 -173.4330
v  221.3963 5.7843 -173.4330
# 121 vertices

vn -0.1279 0.9845 0.1197
vn 0.0000 0.9609 0.2769
vn -0.0791 0.9907 0.1106
vn -0.2193 0.9757 -0.0000
vn 0.0697 0.9744 0.2138
vn 0.1263 0.9834 0.1306
vn 0.0311 0.9978 -0.0580
vn 0.1321 0.9912 -0.0090
vn 0.0000 0.9863 -0.1651
vn 0.0383 0.9969 -0.0684
vn 0.0000 0.9966 -0.0828
vn -0.0374 0.9907 -0.1305
vn -0.0644 0.9945 -0.0824
vn 0.0000 1.0000 -0.0000
vn -0.0921 0.9951 -0.0351
vn -0.1168 0.9732 -0.1981
vn -0.1193 0.9883 -0.0952
vn 0.1043 0.9861 -0.1297
vn 0.1692 0.9855 -0.0109
vn 0.0345 0.9994 -0.0074
vn -0.0649 0.9979 -0.0000
vn -0.1294 0.9916 -0.0000
vn -0.0101 0.9841 -0.1772
vn 0.1294 0.9916 -0.0000
vn -0.0306 0.9726 -0.2303
vn 0.0716 0.9954 -0.0637
vn 0.0385 0.9992 0.0046
vn 0.0649 0.9979 -0.0000
vn -0.0115 0.9991 -0.0403
vn -0.0010 0.9985 -0.0546
vn 0.0126 0.9999 -0.0117
vn -0.0213 0.9996 0.0200
vn -0.0026 0.9954 0.0962
vn 0.0000 0.9945 0.1050
vn -0.0412 0.9957 0.0829
vn -0.0735 0.9973 -0.0000
vn -0.1000 0.9889 0.1101
vn -0.0063 0.9637 0.2669
vn 0.0553 0.9704 0.2351
vn -0.0121 0.9989 0.0449
vn 0.0644 0.9945 0.0824
vn 0.0921 0.9951 0.0351
vn 0.0000 0.9966 0.0828
vn -0.0524 0.9966 0.0631
vn -0.1728 0.9837 -0.0494
vn -0.1002 0.9937 -0.0507
vn 0.1043 0.9944 0.0149
vn 0.2202 0.9729 0.0709
vn 0.0374 0.9907 0.1305
vn 0.0000 0.9863 0.1651
vn -0.0427 0.9989 0.0173
vn -0.0793 0.9518 -0.2963
vn 0.0000 0.9305 -0.3664
vn 0.1725 0.9717 -0.1614
# 54 vertex normals

vt 0.0042 0.0048 0.0000
vt 0.1033 0.0020 0.0000
vt 0.1043 0.0814 0.0000
vt 0.0039 0.0822 0.0000
vt 0.2026 0.0025 0.0000
vt 0.2006 0.0818 0.0000
vt 0.3018 0.0031 0.0000
vt 0.3014 0.0806 0.0000
vt 0.4012 0.0027 0.0000
vt 0.4013 0.0812 0.0000
vt 0.5006 0.0027 0.0000
vt 0.5006 0.0813 0.0000
vt 0.6001 0.0028 0.0000
vt 0.6000 0.0814 0.0000
vt 0.6996 0.0030 0.0000
vt 0.6994 0.0816 0.0000
vt 0.7990 0.0033 0.0000
vt 0.7987 0.0819 0.0000
vt 0.8985 0.0039 0.0000
vt 0.8977 0.0823 0.0000
vt 0.9980 0.0043 0.0000
vt 0.9977 0.0818 0.0000
vt 0.1048 0.1561 0.0000
vt 0.0053 0.1596 0.0000
vt 0.2004 0.1567 0.0000
vt 0.3021 0.1580 0.0000
vt 0.4011 0.1585 0.0000
vt 0.5004 0.1588 0.0000
vt 0.5998 0.1589 0.0000
vt 0.6992 0.1591 0.0000
vt 0.7985 0.1593 0.0000
vt 0.8977 0.1595 0.0000
vt 0.9979 0.1594 0.0000
vt 0.1025 0.2387 0.0000
vt 0.0033 0.2369 0.0000
vt 0.2009 0.2372 0.0000
vt 0.3003 0.2356 0.0000
vt 0.4007 0.2361 0.0000
vt 0.5003 0.2363 0.0000
vt 0.5997 0.2364 0.0000
vt 0.6991 0.2365 0.0000
vt 0.7984 0.2367 0.0000
vt 0.8976 0.2369 0.0000
vt 0.9978 0.2370 0.0000
vt 0.1024 0.3152 0.0000
vt 0.0024 0.3144 0.0000
vt 0.2013 0.3147 0.0000
vt 0.3007 0.3141 0.0000
vt 0.4005 0.3138 0.0000
vt 0.5002 0.3139 0.0000
vt 0.5997 0.3140 0.0000
vt 0.6990 0.3140 0.0000
vt 0.7983 0.3141 0.0000
vt 0.8975 0.3142 0.0000
vt 0.9977 0.3146 0.0000
vt 0.1023 0.3923 0.0000
vt 0.0020 0.3921 0.0000
vt 0.2016 0.3921 0.0000
vt 0.3010 0.3918 0.0000
vt 0.4006 0.3916 0.0000
vt 0.5002 0.3915 0.0000
vt 0.5997 0.3915 0.0000
vt 0.6990 0.3914 0.0000
vt 0.7982 0.3914 0.0000
vt 0.8973 0.3916 0.0000
vt 0.9973 0.3921 0.0000
vt 0.1024 0.4698 0.0000
vt 0.0020 0.4698 0.0000
vt 0.2017 0.4696 0.0000
vt 0.3012 0.4694 0.0000
vt 0.4007 0.4692 0.0000
vt 0.5002 0.4692 0.0000
vt 0.5998 0.4691 0.0000
vt 0.6992 0.4688 0.0000
vt 0.7982 0.4685 0.0000
vt 0.8969 0.4687 0.0000
vt 0.9967 0.4696 0.0000
vt 0.1025 0.5473 0.0000
vt 0.0021 0.5475 0.0000
vt 0.2019 0.5471 0.0000
vt 0.3013 0.5469 0.0000
vt 0.4008 0.5468 0.0000
vt 0.5003 0.5468 0.0000
vt 0.6000 0.5468 0.0000
vt 0.6995 0.5462 0.0000
vt 0.7983 0.5453 0.0000
vt 0.8964 0.5455 0.0000
vt 0.9958 0.5468 0.0000
vt 0.1027 0.6247 0.0000
vt 0.0024 0.6252 0.0000
vt 0.2020 0.6246 0.0000
vt 0.3014 0.6245 0.0000
vt 0.4008 0.6244 0.0000
vt 0.5003 0.6244 0.0000
vt 0.5997 0.6245 0.0000
vt 0.7004 0.6252 0.0000
vt 0.7988 0.6231 0.0000
vt 0.8961 0.6236 0.0000
vt 0.9943 0.6239 0.0000
vt 0.1030 0.7020 0.0000
vt 0.0029 0.7028 0.0000
vt 0.2021 0.7020 0.0000
vt 0.3015 0.7020 0.0000
vt 0.4009 0.7019 0.0000
vt 0.5002 0.7018 0.0000
vt 0.5994 0.7019 0.0000
vt 0.6997 0.7028 0.0000
vt 0.8000 0.7016 0.0000
vt 0.8933 0.7024 0.0000
vt 0.9936 0.7006 0.0000
vt 0.1025 0.7804 0.0000
vt 0.0029 0.7805 0.0000
vt 0.2020 0.7806 0.0000
vt 0.3015 0.7806 0.0000
vt 0.4009 0.7805 0.0000
vt 0.5003 0.7803 0.0000
vt 0.5994 0.7802 0.0000
vt 0.6983 0.7800 0.0000
vt 0.7968 0.7819 0.0000
vt 0.8952 0.7827 0.0000
vt 0.9934 0.7774 0.0000
# 121 texture coords

g Plane001
usemtl wire_108008136
s 1
f 1/1/1 2/2/2 3/3/3 4/4/4 
f 2/2/2 5/5/5 6/6/6 3/3/3 
f 5/5/5 7/7/7 8/8/8 6/6/6 
f 7/7/7 9/9/9 10/10/10 8/8/8 
f 9/9/9 11/11/9 12/12/11 10/10/10 
f 11/11/9 13/13/9 14/14/11 12/12/11 
f 13/13/9 15/15/9 16/16/11 14/14/11 
f 15/15/9 17/17/9 18/18/11 16/16/11 
f 17/17/9 19/19/12 20/20/13 18/18/11 
f 19/19/12 21/21/14 22/22/15 20/20/13 
f 4/4/4 3/3/3 23/23/16 24/24/17 
f 3/3/3 6/6/6 25/25/18 23/23/16 
f 6/6/6 8/8/8 26/26/19 25/25/18 
f 8/8/8 10/10/10 27/27/20 26/26/19 
f 10/10/10 12/12/11 28/28/14 27/27/20 
f 12/12/11 14/14/11 29/29/14 28/28/14 
f 14/14/11 16/16/11 30/30/14 29/29/14 
f 16/16/11 18/18/11 31/31/14 30/30/14 
f 18/18/11 20/20/13 32/32/21 31/31/14 
f 20/20/13 22/22/15 33/33/22 32/32/21 
f 24/24/17 23/23/16 34/34/23 35/35/24 
f 23/23/16 25/25/18 36/36/25 34/34/23 
f 25/25/18 26/26/19 37/37/26 36/36/25 
f 26/26/19 27/27/20 38/38/27 37/37/26 
f 27/27/20 28/28/14 39/39/14 38/38/27 
f 28/28/14 29/29/14 40/40/14 39/39/14 
f 29/29/14 30/30/14 41/41/14 40/40/14 
f 30/30/14 31/31/14 42/42/14 41/41/14 
f 31/31/14 32/32/21 43/43/21 42/42/14 
f 32/32/21 33/33/22 44/44/22 43/43/21 
f 35/35/24 34/34/23 45/45/28 46/46/24 
f 34/34/23 36/36/25 47/47/29 45/45/28 
f 36/36/25 37/37/26 48/48/30 47/47/29 
f 37/37/26 38/38/27 49/49/31 48/48/30 
f 38/38/27 39/39/14 50/50/14 49/49/31 
f 39/39/14 40/40/14 51/51/14 50/50/14 
f 40/40/14 41/41/14 52/52/14 51/51/14 
f 41/41/14 42/42/14 53/53/14 52/52/14 
f 42/42/14 43/43/21 54/54/21 53/53/14 
f 43/43/21 44/44/22 55/55/22 54/54/21 
f 46/46/24 45/45/28 56/56/28 57/57/24 
f 45/45/28 47/47/29 58/58/14 56/56/28 
f 47/47/29 48/48/30 59/59/14 58/58/14 
f 48/48/30 49/49/31 60/60/14 59/59/14 
f 49/49/31 50/50/14 61/61/14 60/60/14 
f 50/50/14 51/51/14 62/62/14 61/61/14 
f 51/51/14 52/52/14 63/63/14 62/62/14 
f 52/52/14 53/53/14 64/64/14 63/63/14 
f 53/53/14 54/54/21 65/65/21 64/64/14 
f 54/54/21 55/55/22 66/66/22 65/65/21 
f 57/57/24 56/56/28 67/67/28 68/68/24 
f 56/56/28 58/58/14 69/69/14 67/67/28 
f 58/58/14 59/59/14 70/70/14 69/69/14 
f 59/59/14 60/60/14 71/71/14 70/70/14 
f 60/60/14 61/61/14 72/72/14 71/71/14 
f 61/61/14 62/62/14 73/73/14 72/72/14 
f 62/62/14 63/63/14 74/74/14 73/73/14 
f 63/63/14 64/64/14 75/75/14 74/74/14 
f 64/64/14 65/65/21 76/76/21 75/75/14 
f 65/65/21 66/66/22 77/77/22 76/76/21 
f 68/68/24 67/67/28 78/78/28 79/79/24 
f 67/67/28 69/69/14 80/80/14 78/78/28 
f 69/69/14 70/70/14 81/81/14 80/80/14 
f 70/70/14 71/71/14 82/82/14 81/81/14 
f 71/71/14 72/72/14 83/83/14 82/82/14 
f 72/72/14 73/73/14 84/84/32 83/83/14 
f 73/73/14 74/74/14 85/85/33 84/84/32 
f 74/74/14 75/75/14 86/86/34 85/85/33 
f 75/75/14 76/76/21 87/87/35 86/86/34 
f 76/76/21 77/77/22 88/88/22 87/87/35 
f 79/79/24 78/78/28 89/89/28 90/90/24 
f 78/78/28 80/80/14 91/91/14 89/89/28 
f 80/80/14 81/81/14 92/92/14 91/91/14 
f 81/81/14 82/82/14 93/93/14 92/92/14 
f 82/82/14 83/83/14 94/94/14 93/93/14 
f 83/83/14 84/84/32 95/95/36 94/94/14 
f 84/84/32 85/85/33 96/96/37 95/95/36 
f 85/85/33 86/86/34 97/97/38 96/96/37 
f 86/86/34 87/87/35 98/98/39 97/97/38 
f 87/87/35 88/88/22 99/99/40 98/98/39 
f 90/90/24 89/89/28 100/100/41 101/101/42 
f 89/89/28 91/91/14 102/102/43 100/100/41 
f 91/91/14 92/92/14 103/103/43 102/102/43 
f 92/92/14 93/93/14 104/104/43 103/103/43 
f 93/93/14 94/94/14 105/105/43 104/104/43 
f 94/94/14 95/95/36 106/106/44 105/105/43 
f 95/95/36 96/96/37 107/107/45 106/106/44 
f 96/96/37 97/97/38 108/108/46 107/107/45 
f 97/97/38 98/98/39 109/109/47 108/108/46 
f 98/98/39 99/99/40 110/110/48 109/109/47 
f 101/101/42 100/100/41 111/111/49 112/112/14 
f 100/100/41 102/102/43 113/113/50 111/111/49 
f 102/102/43 103/103/43 114/114/50 113/113/50 
f 103/103/43 104/104/43 115/115/50 114/114/50 
f 104/104/43 105/105/43 116/116/50 115/115/50 
f 105/105/43 106/106/44 117/117/50 116/116/50 
f 106/106/44 107/107/45 118/118/51 117/117/50 
f 107/107/45 108/108/46 119/119/52 118/118/51 
f 108/108/46 109/109/47 120/120/53 119/119/52 
f 109/109/47 110/110/48 121/121/54 120/120/53 
# 100 polygons

